<svg width="700" height="354" viewBox="0 0 700 354" fill="none" xmlns="http://www.w3.org/2000/svg">
<ellipse cx="156.605" cy="152.336" rx="156.605" ry="152.336" transform="matrix(-1 0 0 1 674.148 0)" fill="#F1F380"/>
<ellipse cx="156.605" cy="152.336" rx="156.605" ry="152.336" transform="matrix(-1 0 0 1 674.148 0)" fill="white" fill-opacity="0.65"/>
<path fill-rule="evenodd" clip-rule="evenodd" d="M583.8 170.623C564.273 161.638 552.635 185.201 562.456 198.321C574.44 214.331 580.579 232.753 583.998 238.303C586.881 242.986 594.781 254.4 604.294 249.139C613.048 244.297 608.277 225.293 608.277 225.293C608.277 225.293 607.89 181.706 583.8 170.623Z" fill="#B7EE81"/>
<path fill-rule="evenodd" clip-rule="evenodd" d="M583.8 170.623C564.273 161.638 552.635 185.201 562.456 198.321C574.44 214.331 580.579 232.753 583.998 238.303C586.881 242.986 594.781 254.4 604.294 249.139C613.048 244.297 608.277 225.293 608.277 225.293C608.277 225.293 607.89 181.706 583.8 170.623Z" fill="white" fill-opacity="0.2"/>
<path fill-rule="evenodd" clip-rule="evenodd" d="M572.743 246.142C580.251 254.701 591.086 271.919 597.875 265.889C601.989 262.234 596.489 244.927 581.434 235.51C568.628 227.5 565.234 237.582 572.743 246.142Z" fill="#B7EE81"/>
<path fill-rule="evenodd" clip-rule="evenodd" d="M572.743 246.142C580.251 254.701 591.086 271.919 597.875 265.889C601.989 262.234 596.489 244.927 581.434 235.51C568.628 227.5 565.234 237.582 572.743 246.142Z" fill="white" fill-opacity="0.2"/>
<path fill-rule="evenodd" clip-rule="evenodd" d="M642.535 245.48C649.174 236.768 651.597 224.265 644.188 221.059C637.083 217.985 625.315 225.554 619.864 240.119C614.414 254.685 611.269 265.157 616.601 266.978C625.349 269.966 633.767 256.987 642.535 245.48Z" fill="#B7EE81"/>
<path fill-rule="evenodd" clip-rule="evenodd" d="M642.535 245.48C649.174 236.768 651.597 224.265 644.188 221.059C637.083 217.985 625.315 225.554 619.864 240.119C614.414 254.685 611.269 265.157 616.601 266.978C625.349 269.966 633.767 256.987 642.535 245.48Z" fill="white" fill-opacity="0.2"/>
<path fill-rule="evenodd" clip-rule="evenodd" d="M644.593 186.744C641.738 184.875 638.145 184.448 634.868 185.47C630.294 186.895 623.352 191.138 616.482 203.318C607.513 219.219 602.844 236.652 603.767 247.695C604.37 254.916 613.516 258.029 618.633 252.764C620.983 250.346 623.469 246.618 625.901 240.963C635.691 218.207 644.844 203.946 645.935 202.514C648.848 198.694 650.93 190.892 644.593 186.744Z" fill="#B7EE81"/>
<path fill-rule="evenodd" clip-rule="evenodd" d="M644.593 186.744C641.738 184.875 638.145 184.448 634.868 185.47C630.294 186.895 623.352 191.138 616.482 203.318C607.513 219.219 602.844 236.652 603.767 247.695C604.37 254.916 613.516 258.029 618.633 252.764C620.983 250.346 623.469 246.618 625.901 240.963C635.691 218.207 644.844 203.946 645.935 202.514C648.848 198.694 650.93 190.892 644.593 186.744Z" fill="black" fill-opacity="0.2"/>
<path d="M625.563 247.966C625.459 247.869 625.293 247.873 625.194 247.975L625.102 248.072L625.041 248.137C624.92 248.269 624.779 248.427 624.62 248.611C624.169 249.134 623.667 249.76 623.126 250.489C621.583 252.566 620.041 255.046 618.603 257.925C614.495 266.143 612.031 275.906 612.031 287.18C612.031 287.321 612.148 287.434 612.292 287.434C612.437 287.434 612.553 287.321 612.553 287.18C612.553 275.986 614.998 266.298 619.072 258.147C620.497 255.296 622.024 252.841 623.549 250.786C624.051 250.11 624.519 249.524 624.942 249.029L625.02 248.937C625.158 248.777 625.282 248.638 625.39 248.519L625.488 248.414L625.572 248.325C625.671 248.224 625.667 248.063 625.563 247.966Z" fill="#2A84C6"/>
<path d="M625.563 247.966C625.459 247.869 625.293 247.873 625.194 247.975L625.102 248.072L625.041 248.137C624.92 248.269 624.779 248.427 624.62 248.611C624.169 249.134 623.667 249.76 623.126 250.489C621.583 252.566 620.041 255.046 618.603 257.925C614.495 266.143 612.031 275.906 612.031 287.18C612.031 287.321 612.148 287.434 612.292 287.434C612.437 287.434 612.553 287.321 612.553 287.18C612.553 275.986 614.998 266.298 619.072 258.147C620.497 255.296 622.024 252.841 623.549 250.786C624.051 250.11 624.519 249.524 624.942 249.029L625.02 248.937C625.158 248.777 625.282 248.638 625.39 248.519L625.488 248.414L625.572 248.325C625.671 248.224 625.667 248.063 625.563 247.966Z" fill="black" fill-opacity="0.35"/>
<path d="M588.564 251.27C588.478 251.158 588.314 251.135 588.199 251.218C588.083 251.302 588.06 251.461 588.146 251.574C589.935 253.904 591.585 256.409 593.103 259.064C596.309 264.675 598.788 270.688 600.627 276.702C601.271 278.806 601.789 280.76 602.192 282.514L602.247 282.755C602.346 283.191 602.431 283.59 602.505 283.948L602.57 284.275C602.587 284.362 602.602 284.441 602.616 284.514L602.652 284.711C602.676 284.85 602.811 284.943 602.953 284.92C603.095 284.896 603.191 284.765 603.167 284.627L603.119 284.366C603.108 284.308 603.096 284.246 603.083 284.18L603.056 284.043C602.961 283.57 602.844 283.021 602.701 282.403C602.296 280.639 601.775 278.673 601.127 276.557C599.278 270.51 596.786 264.463 593.559 258.818C592.03 256.143 590.367 253.619 588.564 251.27Z" fill="#2A84C6"/>
<path d="M588.564 251.27C588.478 251.158 588.314 251.135 588.199 251.218C588.083 251.302 588.06 251.461 588.146 251.574C589.935 253.904 591.585 256.409 593.103 259.064C596.309 264.675 598.788 270.688 600.627 276.702C601.271 278.806 601.789 280.76 602.192 282.514L602.247 282.755C602.346 283.191 602.431 283.59 602.505 283.948L602.57 284.275C602.587 284.362 602.602 284.441 602.616 284.514L602.652 284.711C602.676 284.85 602.811 284.943 602.953 284.92C603.095 284.896 603.191 284.765 603.167 284.627L603.119 284.366C603.108 284.308 603.096 284.246 603.083 284.18L603.056 284.043C602.961 283.57 602.844 283.021 602.701 282.403C602.296 280.639 601.775 278.673 601.127 276.557C599.278 270.51 596.786 264.463 593.559 258.818C592.03 256.143 590.367 253.619 588.564 251.27Z" fill="black" fill-opacity="0.35"/>
<path d="M580.353 191.905C580.249 192.002 580.246 192.162 580.345 192.264L580.41 192.33C580.464 192.387 580.528 192.456 580.602 192.536L580.768 192.718C580.921 192.887 581.089 193.077 581.271 193.287L581.34 193.367C582.136 194.294 583.023 195.408 583.98 196.71C586.715 200.435 589.451 204.92 592.005 210.169C596.256 218.907 599.567 228.871 601.573 240.071C604.008 253.669 604.412 268.521 602.418 284.639C602.401 284.779 602.503 284.905 602.646 284.922C602.789 284.938 602.919 284.839 602.937 284.7C604.936 268.533 604.531 253.63 602.087 239.984C600.073 228.738 596.748 218.73 592.477 209.952C589.909 204.674 587.157 200.164 584.405 196.415L584.191 196.126C583.308 194.936 582.485 193.908 581.74 193.041L581.535 192.804C581.379 192.626 581.235 192.464 581.102 192.318L580.991 192.197C580.928 192.128 580.871 192.068 580.821 192.015L580.722 191.912C580.623 191.811 580.457 191.808 580.353 191.905Z" fill="#2A84C6"/>
<path d="M580.353 191.905C580.249 192.002 580.246 192.162 580.345 192.264L580.41 192.33C580.464 192.387 580.528 192.456 580.602 192.536L580.768 192.718C580.921 192.887 581.089 193.077 581.271 193.287L581.34 193.367C582.136 194.294 583.023 195.408 583.98 196.71C586.715 200.435 589.451 204.92 592.005 210.169C596.256 218.907 599.567 228.871 601.573 240.071C604.008 253.669 604.412 268.521 602.418 284.639C602.401 284.779 602.503 284.905 602.646 284.922C602.789 284.938 602.919 284.839 602.937 284.7C604.936 268.533 604.531 253.63 602.087 239.984C600.073 228.738 596.748 218.73 592.477 209.952C589.909 204.674 587.157 200.164 584.405 196.415L584.191 196.126C583.308 194.936 582.485 193.908 581.74 193.041L581.535 192.804C581.379 192.626 581.235 192.464 581.102 192.318L580.991 192.197C580.928 192.128 580.871 192.068 580.821 192.015L580.722 191.912C580.623 191.811 580.457 191.808 580.353 191.905Z" fill="black" fill-opacity="0.35"/>
<path d="M622.438 220.164C622.314 220.092 622.154 220.13 622.079 220.25L622.031 220.328C621.993 220.392 621.947 220.468 621.895 220.556L621.779 220.754C621.658 220.961 621.525 221.195 621.379 221.455L621.245 221.697C620.749 222.595 620.205 223.635 619.624 224.813L619.545 224.975C617.649 228.839 615.754 233.358 613.985 238.493C609.032 252.877 606.018 269.204 605.905 287.178C605.904 287.319 606.02 287.433 606.165 287.434C606.309 287.435 606.426 287.322 606.427 287.181C606.54 269.263 609.544 252.989 614.48 238.655C616.242 233.539 618.129 229.039 620.016 225.194L620.174 224.874C620.748 223.716 621.284 222.695 621.772 221.817L621.838 221.698C621.998 221.411 622.143 221.157 622.272 220.937L622.432 220.666L622.525 220.513C622.6 220.393 622.561 220.237 622.438 220.164Z" fill="#2A84C6"/>
<path d="M622.438 220.164C622.314 220.092 622.154 220.13 622.079 220.25L622.031 220.328C621.993 220.392 621.947 220.468 621.895 220.556L621.779 220.754C621.658 220.961 621.525 221.195 621.379 221.455L621.245 221.697C620.749 222.595 620.205 223.635 619.624 224.813L619.545 224.975C617.649 228.839 615.754 233.358 613.985 238.493C609.032 252.877 606.018 269.204 605.905 287.178C605.904 287.319 606.02 287.433 606.165 287.434C606.309 287.435 606.426 287.322 606.427 287.181C606.54 269.263 609.544 252.989 614.48 238.655C616.242 233.539 618.129 229.039 620.016 225.194L620.174 224.874C620.748 223.716 621.284 222.695 621.772 221.817L621.838 221.698C621.998 221.411 622.143 221.157 622.272 220.937L622.432 220.666L622.525 220.513C622.6 220.393 622.561 220.237 622.438 220.164Z" fill="black" fill-opacity="0.35"/>
<path fill-rule="evenodd" clip-rule="evenodd" d="M638.027 195.821C637.93 196.944 638.788 197.932 639.943 198.026C641.098 198.12 642.113 197.286 642.21 196.162C642.307 195.038 641.449 194.051 640.294 193.957C639.139 193.863 638.124 194.697 638.027 195.821Z" fill="white"/>
<path fill-rule="evenodd" clip-rule="evenodd" d="M620.2 204.538C620.103 205.661 620.961 206.648 622.116 206.743C623.272 206.837 624.286 206.002 624.383 204.879C624.48 203.755 623.622 202.768 622.467 202.674C621.312 202.58 620.297 203.414 620.2 204.538Z" fill="white"/>
<path fill-rule="evenodd" clip-rule="evenodd" d="M623.188 227.746C623.077 229.033 624.06 230.163 625.382 230.271C626.705 230.379 627.867 229.423 627.978 228.137C628.089 226.85 627.107 225.719 625.784 225.611C624.461 225.503 623.299 226.459 623.188 227.746Z" fill="white"/>
<path fill-rule="evenodd" clip-rule="evenodd" d="M568.433 193.061C568.433 194.887 569.955 196.368 571.832 196.368C573.71 196.368 575.231 194.887 575.231 193.061C575.231 191.235 573.71 189.755 571.832 189.755C569.955 189.755 568.433 191.235 568.433 193.061Z" fill="white"/>
<path fill-rule="evenodd" clip-rule="evenodd" d="M595.797 203.159C595.797 204.985 597.318 206.465 599.196 206.465C601.073 206.465 602.595 204.985 602.595 203.159C602.595 201.333 601.073 199.853 599.196 199.853C597.318 199.853 595.797 201.333 595.797 203.159Z" fill="white"/>
<path fill-rule="evenodd" clip-rule="evenodd" d="M586.934 225.603C586.934 226.366 587.571 226.985 588.355 226.985C589.14 226.985 589.776 226.366 589.776 225.603C589.776 224.839 589.14 224.221 588.355 224.221C587.571 224.221 586.934 224.839 586.934 225.603Z" fill="white"/>
<path fill-rule="evenodd" clip-rule="evenodd" d="M576.699 243.277C576.699 244.405 577.639 245.319 578.798 245.319C579.957 245.319 580.896 244.405 580.896 243.277C580.896 242.15 579.957 241.236 578.798 241.236C577.639 241.236 576.699 242.15 576.699 243.277Z" fill="white"/>
<path fill-rule="evenodd" clip-rule="evenodd" d="M595.88 310.793H616.326C619.318 309.942 620.809 309.098 622.514 306.749L631.777 276.729C631.777 274.504 629.906 272.685 627.619 272.685H585.317C583.03 272.685 581.159 274.504 581.159 276.729L590.341 306.749C591.832 309.942 592.898 310.363 595.88 310.793Z" fill="#2A84C6"/>
<path fill-rule="evenodd" clip-rule="evenodd" d="M595.88 310.793H616.326C619.318 309.942 620.809 309.098 622.514 306.749L631.777 276.729C631.777 274.504 629.906 272.685 627.619 272.685H585.317C583.03 272.685 581.159 274.504 581.159 276.729L590.341 306.749C591.832 309.942 592.898 310.363 595.88 310.793Z" fill="black" fill-opacity="0.35"/>
<mask id="mask0_552_291" style="mask-type:alpha" maskUnits="userSpaceOnUse" x="324" y="46" width="302" height="294">
<ellipse cx="150.374" cy="146.275" rx="150.374" ry="146.275" transform="matrix(-1 0 0 1 625.534 46.6841)" fill="#C4C4C4"/>
</mask>
<g mask="url(#mask0_552_291)">
<path fill-rule="evenodd" clip-rule="evenodd" d="M587.812 207.16C592.206 197.399 587.633 186.021 577.597 181.748L520.124 157.271C510.088 152.997 498.393 157.445 493.999 167.207C489.606 176.968 494.18 188.345 504.214 192.619L561.69 217.095C571.723 221.369 583.419 216.92 587.812 207.16Z" fill="#E4EBF7"/>
<path fill-rule="evenodd" clip-rule="evenodd" d="M347.428 236.24C339.342 229.05 338.781 216.846 346.173 208.983L392.352 159.849C399.744 151.986 412.29 151.439 420.375 158.629C428.458 165.818 429.02 178.022 421.63 185.886L375.449 235.019C368.057 242.884 355.513 243.43 347.428 236.24Z" fill="#E4EBF7"/>
<path fill-rule="evenodd" clip-rule="evenodd" d="M430.996 297.311C430.996 297.311 423.823 282.747 430.535 275.816C436.611 269.538 443.781 274.679 443.781 274.679C443.781 274.679 451.74 278.693 458.154 286.111C462.381 290.999 469.449 301.088 467.108 303.595C464.059 306.862 456.742 294.993 453.888 296.605C450.958 298.261 452.282 300.822 453.324 307.611C453.976 311.854 456.334 315.786 456.18 319.487C455.881 326.717 439.882 320.031 430.996 297.311Z" fill="#FFC999"/>
<path d="M446.793 301.568C446.513 301.539 446.262 301.736 446.232 302.009L446.222 302.127C446.218 302.177 446.214 302.239 446.209 302.312C446.118 303.903 446.266 306.045 446.844 308.575C447.711 312.371 449.39 316.227 452.07 319.977C452.231 320.202 452.548 320.257 452.779 320.101C453.01 319.945 453.067 319.636 452.907 319.411C450.305 315.771 448.678 312.034 447.838 308.36C447.315 306.067 447.158 304.115 447.214 302.638L447.227 302.367C447.234 302.239 447.241 302.153 447.246 302.114C447.275 301.841 447.073 301.597 446.793 301.568Z" fill="#DD936F"/>
<path d="M440.738 301.582L440.655 301.583C440.375 301.61 440.17 301.852 440.197 302.124C440.537 305.538 441.554 308.87 443.036 312.019C443.682 313.392 444.375 314.639 445.068 315.736L445.351 316.176C445.443 316.315 445.531 316.447 445.616 316.571L445.872 316.937C445.929 317.016 445.973 317.076 446.003 317.115C446.171 317.334 446.49 317.381 446.716 317.218C446.942 317.055 446.989 316.744 446.822 316.524L446.583 316.193C446.388 315.915 446.171 315.589 445.936 315.217C445.263 314.153 444.59 312.941 443.962 311.606C442.524 308.552 441.539 305.323 441.211 302.029C441.187 301.784 440.983 301.598 440.738 301.582Z" fill="#DD936F"/>
<path d="M435.376 298.693C435.123 298.691 434.911 298.869 434.87 299.104L434.863 299.185C434.86 299.859 435 301.076 435.416 302.792C436.099 305.604 437.33 308.822 439.242 312.399C439.372 312.642 439.68 312.736 439.929 312.61C440.179 312.484 440.276 312.185 440.146 311.942C438.272 308.437 437.071 305.296 436.408 302.564C436.176 301.608 436.027 300.772 435.946 300.06L435.904 299.636C435.891 299.474 435.884 299.346 435.882 299.254L435.882 299.191L435.876 299.112C435.838 298.876 435.629 298.695 435.376 298.693Z" fill="#DD936F"/>
<path fill-rule="evenodd" clip-rule="evenodd" d="M444.707 265.179L423.864 291.278L349.038 238.246C340.387 231.709 338.823 219.588 345.541 211.173C352.263 202.758 364.723 201.236 373.373 207.771L444.707 265.179Z" fill="#E4EBF7"/>
<path d="M384.459 216.671C384.154 216.43 383.706 216.475 383.458 216.771C383.233 217.041 383.251 217.426 383.485 217.675L383.562 217.745L444.114 265.588L423.698 291.154C423.479 291.428 423.505 291.812 423.745 292.056L423.823 292.125C424.106 292.338 424.501 292.312 424.751 292.079L424.822 292.003L445.665 265.903C445.88 265.633 445.858 265.255 445.627 265.011L445.551 264.941L384.459 216.671Z" fill="#1443BD"/>
<path d="M384.459 216.671C384.154 216.43 383.706 216.475 383.458 216.771C383.233 217.041 383.251 217.426 383.485 217.675L383.562 217.745L444.114 265.588L423.698 291.154C423.479 291.428 423.505 291.812 423.745 292.056L423.823 292.125C424.106 292.338 424.501 292.312 424.751 292.079L424.822 292.003L445.665 265.903C445.88 265.633 445.858 265.255 445.627 265.011L445.551 264.941L384.459 216.671Z" fill="white" fill-opacity="0.2"/>
<path d="M432.249 258.109C431.967 257.896 431.572 257.922 431.321 258.155L431.251 258.231L413.552 280.393C413.31 280.695 413.367 281.13 413.677 281.364C413.959 281.577 414.354 281.551 414.605 281.318L414.675 281.242L432.374 259.081C432.616 258.779 432.559 258.344 432.249 258.109Z" fill="#1443BD"/>
<path d="M432.249 258.109C431.967 257.896 431.572 257.922 431.321 258.155L431.251 258.231L413.552 280.393C413.31 280.695 413.367 281.13 413.677 281.364C413.959 281.577 414.354 281.551 414.605 281.318L414.675 281.242L432.374 259.081C432.616 258.779 432.559 258.344 432.249 258.109Z" fill="white" fill-opacity="0.2"/>
<path fill-rule="evenodd" clip-rule="evenodd" d="M537.255 94.8027C537.255 94.8027 546.671 108.102 541.154 115.967C536.156 123.09 528.251 119.096 528.251 119.096C528.251 119.096 519.746 116.338 512.221 109.982C507.264 105.794 498.667 96.9 500.577 94.0704C503.066 90.3799 512.194 100.996 514.756 98.9695C517.385 96.8903 515.665 94.5618 513.549 88.0127C512.225 83.9207 509.267 80.3935 508.824 76.7168C507.962 69.5281 524.838 73.7087 537.255 94.8027Z" fill="#FFC999"/>
<path d="M512.773 75.6374C512.596 75.4577 512.303 75.4516 512.118 75.6237C511.933 75.7959 511.927 76.0811 512.104 76.2608C512.247 76.4064 512.389 76.5526 512.529 76.6995C515.833 80.1738 518.032 83.893 519.339 87.6096C519.795 88.9076 520.108 90.1115 520.302 91.1898C520.353 91.4714 520.392 91.7287 520.423 91.9601L520.468 92.3579C520.475 92.432 520.479 92.4858 520.48 92.5184C520.493 92.767 520.711 92.9583 520.966 92.9458C521.222 92.9332 521.419 92.7216 521.406 92.4731L521.391 92.2815L521.371 92.0854C521.337 91.7809 521.286 91.4292 521.214 91.0341C521.012 89.9109 520.688 88.6617 520.216 87.318C518.869 83.4867 516.604 79.658 513.209 76.0875C513.065 75.9368 512.92 75.7868 512.773 75.6374Z" fill="#1443BD"/>
<path d="M512.773 75.6374C512.596 75.4577 512.303 75.4516 512.118 75.6237C511.933 75.7959 511.927 76.0811 512.104 76.2608C512.247 76.4064 512.389 76.5526 512.529 76.6995C515.833 80.1738 518.032 83.893 519.339 87.6096C519.795 88.9076 520.108 90.1115 520.302 91.1898C520.353 91.4714 520.392 91.7287 520.423 91.9601L520.468 92.3579C520.475 92.432 520.479 92.4858 520.48 92.5184C520.493 92.767 520.711 92.9583 520.966 92.9458C521.222 92.9332 521.419 92.7216 521.406 92.4731L521.391 92.2815L521.371 92.0854C521.337 91.7809 521.286 91.4292 521.214 91.0341C521.012 89.9109 520.688 88.6617 520.216 87.318C518.869 83.4867 516.604 79.658 513.209 76.0875C513.065 75.9368 512.92 75.7868 512.773 75.6374Z" fill="white" fill-opacity="0.2"/>
<path d="M519.243 77.5302C519.051 77.347 518.743 77.3497 518.554 77.5362C518.366 77.7227 518.369 78.0225 518.561 78.2057L518.765 78.4097C518.812 78.4574 518.864 78.5118 518.923 78.5728L519.292 78.9684C519.484 79.179 519.688 79.4088 519.901 79.6572C520.916 80.8421 521.932 82.1999 522.879 83.708C524.461 86.2233 525.689 88.8978 526.43 91.6855C526.497 91.9387 526.762 92.0909 527.023 92.0254C527.283 91.96 527.439 91.7018 527.372 91.4486C526.606 88.5636 525.338 85.8047 523.71 83.2141C522.736 81.6645 521.693 80.2697 520.648 79.051C520.355 78.7091 520.079 78.4006 519.823 78.1269L519.468 77.7545C519.418 77.7033 519.374 77.659 519.336 77.6216L519.243 77.5302Z" fill="#DD936F"/>
<path fill-rule="evenodd" clip-rule="evenodd" d="M516.09 124.141L547.07 110.569L587.664 191.508C592.162 201.225 587.712 212.648 577.725 217.023C567.736 221.398 555.993 217.07 551.494 207.353L516.09 124.141Z" fill="#E4EBF7"/>
<path d="M547.512 109.842C547.364 109.522 546.998 109.365 546.662 109.462L546.571 109.495L515.592 123.067C515.274 123.206 515.111 123.545 515.193 123.865L515.225 123.96L542.039 187.702C542.188 188.055 542.604 188.225 542.968 188.08C543.301 187.947 543.475 187.597 543.387 187.267L543.357 187.177L516.803 124.054L547.156 110.757C547.484 110.613 547.646 110.257 547.546 109.93L547.512 109.842Z" fill="#1443BD"/>
<path d="M547.512 109.842C547.364 109.522 546.998 109.365 546.662 109.462L546.571 109.495L515.592 123.067C515.274 123.206 515.111 123.545 515.193 123.865L515.225 123.96L542.039 187.702C542.188 188.055 542.604 188.225 542.968 188.08C543.301 187.947 543.475 187.597 543.387 187.267L543.357 187.177L516.803 124.054L547.156 110.757C547.484 110.613 547.646 110.257 547.546 109.93L547.512 109.842Z" fill="white" fill-opacity="0.2"/>
<path d="M552.174 122.092C552.04 121.766 551.681 121.594 551.341 121.677L551.249 121.706L523.201 132.62C522.837 132.762 522.659 133.165 522.805 133.52C522.939 133.845 523.298 134.017 523.638 133.934L523.73 133.905L551.778 122.991C552.143 122.849 552.32 122.446 552.174 122.092Z" fill="#1443BD"/>
<path d="M552.174 122.092C552.04 121.766 551.681 121.594 551.341 121.677L551.249 121.706L523.201 132.62C522.837 132.762 522.659 133.165 522.805 133.52C522.939 133.845 523.298 134.017 523.638 133.934L523.73 133.905L551.778 122.991C552.143 122.849 552.32 122.446 552.174 122.092Z" fill="white" fill-opacity="0.2"/>
<path fill-rule="evenodd" clip-rule="evenodd" d="M512.793 121.874L533.309 108.561C535.007 107.459 535.467 105.228 534.334 103.575L504.882 60.6255C503.75 58.974 501.453 58.5283 499.756 59.6302L479.239 72.9417C477.541 74.0436 477.081 76.2765 478.214 77.928L507.665 120.877C508.798 122.53 511.095 122.976 512.793 121.874Z" fill="#1443BD"/>
<path fill-rule="evenodd" clip-rule="evenodd" d="M512.793 121.874L533.309 108.561C535.007 107.459 535.467 105.228 534.334 103.575L504.882 60.6255C503.75 58.974 501.453 58.5283 499.756 59.6302L479.239 72.9417C477.541 74.0436 477.081 76.2765 478.214 77.928L507.665 120.877C508.798 122.53 511.095 122.976 512.793 121.874Z" fill="black" fill-opacity="0.5"/>
<path fill-rule="evenodd" clip-rule="evenodd" d="M460.082 411.033L473.299 335.497C475.826 319.842 463.565 305.619 447.279 305.311C433.181 305.044 421.27 315.42 419.995 329.079L412.834 405.838C412.834 405.838 409.561 427.595 433.157 429.98C456.106 432.3 460.082 411.033 460.082 411.033Z" fill="#1443BD"/>
<path fill-rule="evenodd" clip-rule="evenodd" d="M460.082 411.033L473.299 335.497C475.826 319.842 463.565 305.619 447.279 305.311C433.181 305.044 421.27 315.42 419.995 329.079L412.834 405.838C412.834 405.838 409.561 427.595 433.157 429.98C456.106 432.3 460.082 411.033 460.082 411.033Z" fill="black" fill-opacity="0.5"/>
<path fill-rule="evenodd" clip-rule="evenodd" d="M479.519 406.699L469.967 330.643C468.2 314.889 481.134 301.243 497.419 301.68C511.513 302.058 522.909 312.969 523.523 326.671L526.965 403.67C526.965 403.67 529.184 425.553 505.498 426.857C482.462 428.125 479.519 406.699 479.519 406.699Z" fill="#1443BD"/>
<path fill-rule="evenodd" clip-rule="evenodd" d="M479.519 406.699L469.967 330.643C468.2 314.889 481.134 301.243 497.419 301.68C511.513 302.058 522.909 312.969 523.523 326.671L526.965 403.67C526.965 403.67 529.184 425.553 505.498 426.857C482.462 428.125 479.519 406.699 479.519 406.699Z" fill="black" fill-opacity="0.5"/>
<path fill-rule="evenodd" clip-rule="evenodd" d="M466.005 344.883L424.784 313.752C421.92 311.59 420.455 308.11 420.936 304.614L426.44 264.543L523.692 267.566L523.503 309.023C523.493 311.601 522.447 314.062 520.597 315.909C514.927 321.572 500.76 332.784 476.242 344.71C472.914 346.328 468.853 347.211 466.005 344.883Z" fill="#1443BD"/>
<path fill-rule="evenodd" clip-rule="evenodd" d="M466.005 344.883L424.784 313.752C421.92 311.59 420.455 308.11 420.936 304.614L426.44 264.543L523.692 267.566L523.503 309.023C523.493 311.601 522.447 314.062 520.597 315.909C514.927 321.572 500.76 332.784 476.242 344.71C472.914 346.328 468.853 347.211 466.005 344.883Z" fill="black" fill-opacity="0.5"/>
<path d="M428.638 276.081C428.337 276.07 428.084 276.299 428.072 276.592C428.063 276.856 428.252 277.082 428.51 277.132L428.598 277.142L516.689 280.28C516.991 280.291 517.244 280.062 517.255 279.769C517.265 279.505 517.075 279.28 516.818 279.229L516.729 279.219L428.638 276.081Z" fill="#1443BD"/>
<path d="M428.638 276.081C428.337 276.07 428.084 276.299 428.072 276.592C428.063 276.856 428.252 277.082 428.51 277.132L428.598 277.142L516.689 280.28C516.991 280.291 517.244 280.062 517.255 279.769C517.265 279.505 517.075 279.28 516.818 279.229L516.729 279.219L428.638 276.081Z" fill="black" fill-opacity="0.5"/>
<path d="M479.531 266.193C479.26 266.183 479.028 266.368 478.976 266.618L478.966 266.704L478.526 278.389C478.515 278.682 478.75 278.928 479.051 278.939C479.322 278.948 479.554 278.764 479.606 278.513L479.617 278.428L480.056 266.743C480.067 266.45 479.832 266.203 479.531 266.193Z" fill="#1443BD"/>
<path d="M479.531 266.193C479.26 266.183 479.028 266.368 478.976 266.618L478.966 266.704L478.526 278.389C478.515 278.682 478.75 278.928 479.051 278.939C479.322 278.948 479.554 278.764 479.606 278.513L479.617 278.428L480.056 266.743C480.067 266.45 479.832 266.203 479.531 266.193Z" fill="black" fill-opacity="0.5"/>
<path fill-rule="evenodd" clip-rule="evenodd" d="M443.619 94.7582C443.619 94.7582 440.355 66.1086 477.273 68.3304C497.829 70.9218 496.551 104.223 496.551 104.223C496.551 104.223 497.824 111.249 494.949 118.387C491.731 126.381 483.802 128.902 473.423 129.575C454.194 128.478 446.683 118.009 446.683 118.009C446.683 118.009 433.407 118.673 434.907 102.48C436.403 87.4601 443.619 94.7582 443.619 94.7582Z" fill="#FFC999"/>
<path fill-rule="evenodd" clip-rule="evenodd" d="M447.16 75.124C447.136 82.483 440.985 88.4299 433.422 88.4078C425.855 88.3856 419.741 82.4013 419.764 75.0423C419.788 67.6834 425.939 61.7364 433.504 61.7598C441.069 61.7821 447.183 67.765 447.16 75.124Z" fill="#1443BD"/>
<path fill-rule="evenodd" clip-rule="evenodd" d="M447.16 75.124C447.136 82.483 440.985 88.4299 433.422 88.4078C425.855 88.3856 419.741 82.4013 419.764 75.0423C419.788 67.6834 425.939 61.7364 433.504 61.7598C441.069 61.7821 447.183 67.765 447.16 75.124Z" fill="black" fill-opacity="0.5"/>
<path fill-rule="evenodd" clip-rule="evenodd" d="M496.37 105.258C496.37 105.258 500.894 97.6844 503.622 88.6463C506.35 79.6081 488.708 61.464 486.313 59.9981C483.916 58.5321 482.721 57.0689 466.204 62.8566C417.218 64.6175 428.7 108.305 428.7 108.305C428.7 108.305 422.985 112.303 426.251 123.11C430.114 133.917 445.448 134.339 445.448 134.339L446.035 117.451C446.035 117.451 440.85 117.815 436.969 111.968C433.087 106.12 436.48 99.0383 438.882 98.461C441.024 96.9092 446.363 97.7038 446.345 103.94C446.335 107.08 452.501 100.061 454.943 88.1147C472.05 84.9557 476.369 73.3912 476.369 73.3912C476.369 73.3912 476.936 84.4823 474.222 89.1432C483.229 86.5435 488.043 81.8895 486.559 76.924C496.745 81.3302 496.37 105.258 496.37 105.258Z" fill="#1443BD"/>
<path fill-rule="evenodd" clip-rule="evenodd" d="M496.37 105.258C496.37 105.258 500.894 97.6844 503.622 88.6463C506.35 79.6081 488.708 61.464 486.313 59.9981C483.916 58.5321 482.721 57.0689 466.204 62.8566C417.218 64.6175 428.7 108.305 428.7 108.305C428.7 108.305 422.985 112.303 426.251 123.11C430.114 133.917 445.448 134.339 445.448 134.339L446.035 117.451C446.035 117.451 440.85 117.815 436.969 111.968C433.087 106.12 436.48 99.0383 438.882 98.461C441.024 96.9092 446.363 97.7038 446.345 103.94C446.335 107.08 452.501 100.061 454.943 88.1147C472.05 84.9557 476.369 73.3912 476.369 73.3912C476.369 73.3912 476.936 84.4823 474.222 89.1432C483.229 86.5435 488.043 81.8895 486.559 76.924C496.745 81.3302 496.37 105.258 496.37 105.258Z" fill="black" fill-opacity="0.5"/>
<path fill-rule="evenodd" clip-rule="evenodd" d="M445.441 136.418L445.953 111.236L479.705 112.095C479.705 112.095 479.522 129.289 480.168 136.266C502.105 148.087 452.393 156.773 440.948 143.487C437.412 139.383 445.441 136.418 445.441 136.418Z" fill="#FFC999"/>
<path fill-rule="evenodd" clip-rule="evenodd" d="M477.054 99.7885C476.4 106.169 471.269 110.896 465.586 110.347C459.907 109.797 455.831 104.18 456.483 97.7992C457.136 91.4176 462.269 86.6902 467.95 87.2397C473.63 87.7893 477.705 93.4082 477.054 99.7885Z" fill="white"/>
<path d="M468.021 86.5514C474.115 87.1412 478.45 93.1168 477.762 99.8573C477.072 106.599 471.613 111.625 465.516 111.036C459.421 110.446 455.086 104.472 455.775 97.7312C456.455 91.0897 461.762 86.1121 467.748 86.5287L468.021 86.5514ZM457.191 97.8682C456.576 103.888 460.393 109.149 465.657 109.658C470.923 110.168 475.729 105.742 476.346 99.7203C476.961 93.7001 473.144 88.4383 467.88 87.9289C462.614 87.4196 457.807 91.8464 457.191 97.8682Z" fill="#1443BD"/>
<path d="M468.021 86.5514C474.115 87.1412 478.45 93.1168 477.762 99.8573C477.072 106.599 471.613 111.625 465.516 111.036C459.421 110.446 455.086 104.472 455.775 97.7312C456.455 91.0897 461.762 86.1121 467.748 86.5287L468.021 86.5514ZM457.191 97.8682C456.576 103.888 460.393 109.149 465.657 109.658C470.923 110.168 475.729 105.742 476.346 99.7203C476.961 93.7001 473.144 88.4383 467.88 87.9289C462.614 87.4196 457.807 91.8464 457.191 97.8682Z" fill="black" fill-opacity="0.5"/>
<path fill-rule="evenodd" clip-rule="evenodd" d="M500.032 98.9988C499.38 105.379 494.54 110.134 489.222 109.621C483.904 109.106 480.121 103.516 480.773 97.1355C481.426 90.7553 486.265 85.9988 491.583 86.5138C496.902 87.0287 500.685 92.6185 500.032 98.9988Z" fill="white"/>
<path d="M491.653 85.8255C497.401 86.3818 501.429 92.3352 500.74 99.0679C500.052 105.8 494.898 110.865 489.152 110.31C483.406 109.753 479.377 103.8 480.065 97.0676C480.744 90.4361 485.753 85.423 491.393 85.804L491.653 85.8255ZM481.481 97.2046C480.865 103.233 484.402 108.459 489.293 108.932C494.183 109.405 498.708 104.959 499.324 98.9309C499.941 92.9027 496.404 87.6765 491.513 87.203C486.623 86.7295 482.098 91.1758 481.481 97.2046Z" fill="#1443BD"/>
<path d="M491.653 85.8255C497.401 86.3818 501.429 92.3352 500.74 99.0679C500.052 105.8 494.898 110.865 489.152 110.31C483.406 109.753 479.377 103.8 480.065 97.0676C480.744 90.4361 485.753 85.423 491.393 85.804L491.653 85.8255ZM481.481 97.2046C480.865 103.233 484.402 108.459 489.293 108.932C494.183 109.405 498.708 104.959 499.324 98.9309C499.941 92.9027 496.404 87.6765 491.513 87.203C486.623 86.7295 482.098 91.1758 481.481 97.2046Z" fill="black" fill-opacity="0.5"/>
<path d="M479.565 101.377C479.382 101.185 479.074 101.174 478.877 101.351C478.702 101.509 478.673 101.764 478.797 101.953L478.851 102.02L482.237 105.572L478.538 108.708C478.358 108.86 478.321 109.114 478.439 109.306L478.491 109.375C478.648 109.551 478.908 109.586 479.106 109.471L479.178 109.421L483.255 105.965C483.439 105.809 483.473 105.548 483.347 105.355L483.292 105.286L479.565 101.377Z" fill="#DD936F"/>
<path d="M470.606 111.305C470.5 111.673 470.721 112.055 471.099 112.158L471.785 112.333C472.317 112.462 472.895 112.591 473.501 112.712C474.45 112.901 475.377 113.051 476.252 113.148C477.737 113.313 478.986 113.316 479.944 113.112C480.328 113.031 480.571 112.662 480.487 112.288C480.403 111.915 480.024 111.678 479.64 111.76C478.866 111.925 477.756 111.921 476.413 111.773C475.584 111.681 474.697 111.537 473.786 111.356C473.348 111.269 472.924 111.177 472.523 111.083L471.484 110.826C471.106 110.722 470.713 110.937 470.606 111.305Z" fill="#F56D7E"/>
<path fill-rule="evenodd" clip-rule="evenodd" d="M477.22 96.7558C477.22 96.7558 479.027 95.5916 480.626 96.7655L477.22 96.7558Z" fill="white"/>
<path d="M477.22 96.7558C477.22 96.7558 479.027 95.5916 480.626 96.7655" stroke="#1443BD" stroke-width="1.5" stroke-linecap="round" stroke-linejoin="round"/>
<path d="M477.22 96.7558C477.22 96.7558 479.027 95.5916 480.626 96.7655" stroke="black" stroke-opacity="0.5" stroke-width="1.5" stroke-linecap="round" stroke-linejoin="round"/>
<path d="M462.146 127.173C461.885 127.111 461.621 127.267 461.558 127.521C461.494 127.775 461.654 128.031 461.916 128.093C463.409 128.447 465.113 128.727 466.99 128.942C470.541 129.348 474.219 129.485 477.32 129.467L478.333 129.455C478.602 129.448 478.814 129.231 478.808 128.97C478.801 128.708 478.578 128.502 478.309 128.508L477.963 128.514C474.771 128.555 470.859 128.431 467.103 128.002C465.264 127.791 463.597 127.517 462.146 127.173Z" fill="#DD936F"/>
<path fill-rule="evenodd" clip-rule="evenodd" d="M471.206 98.1235C471.2 99.7016 470.479 100.979 469.593 100.978C468.708 100.975 467.995 99.6919 468 98.1138C468.005 96.5357 468.727 95.258 469.612 95.2607C470.497 95.2635 471.21 96.5454 471.206 98.1235Z" fill="#1443BD"/>
<path fill-rule="evenodd" clip-rule="evenodd" d="M471.206 98.1235C471.2 99.7016 470.479 100.979 469.593 100.978C468.708 100.975 467.995 99.6919 468 98.1138C468.005 96.5357 468.727 95.258 469.612 95.2607C470.497 95.2635 471.21 96.5454 471.206 98.1235Z" fill="black" fill-opacity="0.5"/>
<path fill-rule="evenodd" clip-rule="evenodd" d="M492.041 98.4448C492.035 100.023 491.314 101.301 490.429 101.299C489.543 101.296 488.83 100.013 488.835 98.4351C488.84 96.857 489.562 95.5793 490.447 95.582C491.332 95.5848 492.045 96.8667 492.041 98.4448Z" fill="#1443BD"/>
<path fill-rule="evenodd" clip-rule="evenodd" d="M492.041 98.4448C492.035 100.023 491.314 101.301 490.429 101.299C489.543 101.296 488.83 100.013 488.835 98.4351C488.84 96.857 489.562 95.5793 490.447 95.582C491.332 95.5848 492.045 96.8667 492.041 98.4448Z" fill="black" fill-opacity="0.5"/>
<path d="M456.47 97.1069L447.151 97.2745C446.758 97.2815 446.446 97.5971 446.453 97.9793C446.46 98.3296 446.733 98.6144 447.081 98.6539L447.178 98.6585L456.496 98.491C456.889 98.484 457.202 98.1684 457.194 97.7862C457.188 97.4358 456.914 97.1511 456.566 97.1115L456.47 97.1069Z" fill="#1443BD"/>
<path d="M456.47 97.1069L447.151 97.2745C446.758 97.2815 446.446 97.5971 446.453 97.9793C446.46 98.3296 446.733 98.6144 447.081 98.6539L447.178 98.6585L456.496 98.491C456.889 98.484 457.202 98.1684 457.194 97.7862C457.188 97.4358 456.914 97.1511 456.566 97.1115L456.47 97.1069Z" fill="black" fill-opacity="0.5"/>
<path fill-rule="evenodd" clip-rule="evenodd" d="M486.204 141.372L484.596 141.336C485.783 150.732 449.351 152.102 443.723 141.196C443.581 140.918 443.468 140.657 443.373 140.408L438.936 140.309L437.047 304.011C437.047 304.011 468.798 317.201 499.255 306.1C512.516 175.402 486.204 141.372 486.204 141.372Z" fill="#B8C8FF"/>
<path d="M481.804 153.715C481.676 153.45 481.35 153.336 481.078 153.461C480.331 153.804 479.574 154.118 478.807 154.405C470.499 157.512 461.606 157.311 453.196 155.1C451.847 154.745 450.631 154.366 449.567 153.986L449.045 153.795L448.594 153.622C448.43 153.556 448.32 153.511 448.266 153.487C447.991 153.368 447.669 153.488 447.546 153.756C447.423 154.024 447.547 154.337 447.822 154.457L448.182 154.605L448.651 154.786C448.819 154.849 448.999 154.915 449.191 154.983C450.284 155.373 451.531 155.762 452.911 156.125C461.525 158.39 470.643 158.596 479.199 155.396C479.991 155.1 480.772 154.775 481.543 154.422C481.816 154.297 481.933 153.98 481.804 153.715Z" fill="#1443BD"/>
<path d="M481.804 153.715C481.676 153.45 481.35 153.336 481.078 153.461C480.331 153.804 479.574 154.118 478.807 154.405C470.499 157.512 461.606 157.311 453.196 155.1C451.847 154.745 450.631 154.366 449.567 153.986L449.045 153.795L448.594 153.622C448.43 153.556 448.32 153.511 448.266 153.487C447.991 153.368 447.669 153.488 447.546 153.756C447.423 154.024 447.547 154.337 447.822 154.457L448.182 154.605L448.651 154.786C448.819 154.849 448.999 154.915 449.191 154.983C450.284 155.373 451.531 155.762 452.911 156.125C461.525 158.39 470.643 158.596 479.199 155.396C479.991 155.1 480.772 154.775 481.543 154.422C481.816 154.297 481.933 153.98 481.804 153.715Z" fill="white" fill-opacity="0.2"/>
<path fill-rule="evenodd" clip-rule="evenodd" d="M480.725 135.601C480.725 135.601 488.996 157.889 491.088 239.192C492.756 303.947 495.417 414.673 495.417 414.673C495.417 414.673 527.184 413.659 529.876 399.633C531.479 391.288 529.99 176.389 523.443 159.607C516.151 155.659 504.618 149.866 493.35 144.115C490.612 142.719 485.834 138.92 484.094 138.02C479.366 135.573 480.725 135.601 480.725 135.601Z" fill="#E4EBF7"/>
<path d="M527.456 180.12C527.096 180.128 526.805 180.395 526.765 180.734L526.761 180.849L527.279 204.175L527.69 223.497C527.917 234.376 528.141 245.46 528.356 256.567L528.743 277.104C528.846 282.743 528.945 288.281 529.038 293.705L529.332 311.418C529.995 353.157 530.248 383.258 529.967 397.508C529.96 397.89 530.272 398.206 530.665 398.214C531.058 398.221 531.382 397.917 531.39 397.535L531.425 395.491C531.679 378.362 531.305 342.611 530.461 293.681L530.21 279.49C530.093 273.078 529.971 266.532 529.843 259.874L529.45 239.919C529.317 233.296 529.181 226.713 529.045 220.211L528.184 180.797C528.175 180.415 527.849 180.112 527.456 180.12Z" fill="#1443BD"/>
<path d="M527.456 180.12C527.096 180.128 526.805 180.395 526.765 180.734L526.761 180.849L527.279 204.175L527.69 223.497C527.917 234.376 528.141 245.46 528.356 256.567L528.743 277.104C528.846 282.743 528.945 288.281 529.038 293.705L529.332 311.418C529.995 353.157 530.248 383.258 529.967 397.508C529.96 397.89 530.272 398.206 530.665 398.214C531.058 398.221 531.382 397.917 531.39 397.535L531.425 395.491C531.679 378.362 531.305 342.611 530.461 293.681L530.21 279.49C530.093 273.078 529.971 266.532 529.843 259.874L529.45 239.919C529.317 233.296 529.181 226.713 529.045 220.211L528.184 180.797C528.175 180.415 527.849 180.112 527.456 180.12Z" fill="white" fill-opacity="0.2"/>
<path fill-rule="evenodd" clip-rule="evenodd" d="M401.739 153.749C413.086 148.547 425.498 146.477 432.683 142.581C437.287 140.085 440.991 136.711 444.607 135.572C467.892 237.111 453.533 359.964 448.938 418.341C421.606 421.625 401.657 392.845 401.657 392.845C401.657 392.845 402.674 312.157 405.647 259.102C408.12 214.973 398.839 155.079 401.739 153.749Z" fill="#E4EBF7"/>
<path d="M444.892 134.831C444.691 134.543 444.307 134.45 443.994 134.596L443.903 134.648L432.636 142.102C432.48 142.205 432.373 142.365 432.338 142.545L432.277 142.906L432.256 143.042C432.198 143.441 432.139 143.917 432.085 144.47C431.158 153.921 432.429 167.851 437.607 186.206L438.121 187.994C439.997 194.399 447.572 219.648 449.388 226.567C452.249 237.464 454.139 247.28 455.45 258.756C455.494 259.136 455.846 259.41 456.236 259.367C456.627 259.325 456.908 258.983 456.865 258.603C455.599 247.522 453.795 237.975 451.108 227.534L450.767 226.224C448.866 218.984 440.707 191.826 439.284 186.909L439.205 186.636C433.959 168.312 432.616 154.422 433.463 145.008L433.502 144.601C433.543 144.176 433.587 143.8 433.632 143.474L433.689 143.079L444.703 135.792C444.999 135.597 445.095 135.223 444.944 134.92L444.892 134.831Z" fill="#1443BD"/>
<path d="M444.892 134.831C444.691 134.543 444.307 134.45 443.994 134.596L443.903 134.648L432.636 142.102C432.48 142.205 432.373 142.365 432.338 142.545L432.277 142.906L432.256 143.042C432.198 143.441 432.139 143.917 432.085 144.47C431.158 153.921 432.429 167.851 437.607 186.206L438.121 187.994C439.997 194.399 447.572 219.648 449.388 226.567C452.249 237.464 454.139 247.28 455.45 258.756C455.494 259.136 455.846 259.41 456.236 259.367C456.627 259.325 456.908 258.983 456.865 258.603C455.599 247.522 453.795 237.975 451.108 227.534L450.767 226.224C448.866 218.984 440.707 191.826 439.284 186.909L439.205 186.636C433.959 168.312 432.616 154.422 433.463 145.008L433.502 144.601C433.543 144.176 433.587 143.8 433.632 143.474L433.689 143.079L444.703 135.792C444.999 135.597 445.095 135.223 444.944 134.92L444.892 134.831Z" fill="white" fill-opacity="0.2"/>
<path d="M481.115 135.021C480.786 134.812 480.345 134.902 480.13 135.222C479.935 135.513 479.993 135.894 480.253 136.118L480.337 136.18L493.509 144.551L493.572 144.91C493.641 145.302 493.715 145.754 493.795 146.267L493.892 146.913C494.224 149.17 494.556 151.94 494.866 155.244L494.996 156.673C497.077 180.225 496.915 214.169 493.047 259.82C493.014 260.201 493.306 260.535 493.697 260.566C494.089 260.598 494.433 260.314 494.465 259.933L494.697 257.148C498.421 211.899 498.462 178.328 496.283 155.118L496.165 153.895C495.907 151.3 495.636 149.055 495.363 147.151L495.202 146.061C495.153 145.748 495.107 145.456 495.062 145.187L494.928 144.414C494.893 144.218 494.866 144.08 494.849 143.998C494.819 143.852 494.742 143.72 494.631 143.622L494.541 143.554L481.115 135.021Z" fill="#1443BD"/>
<path d="M481.115 135.021C480.786 134.812 480.345 134.902 480.13 135.222C479.935 135.513 479.993 135.894 480.253 136.118L480.337 136.18L493.509 144.551L493.572 144.91C493.641 145.302 493.715 145.754 493.795 146.267L493.892 146.913C494.224 149.17 494.556 151.94 494.866 155.244L494.996 156.673C497.077 180.225 496.915 214.169 493.047 259.82C493.014 260.201 493.306 260.535 493.697 260.566C494.089 260.598 494.433 260.314 494.465 259.933L494.697 257.148C498.421 211.899 498.462 178.328 496.283 155.118L496.165 153.895C495.907 151.3 495.636 149.055 495.363 147.151L495.202 146.061C495.153 145.748 495.107 145.456 495.062 145.187L494.928 144.414C494.893 144.218 494.866 144.08 494.849 143.998C494.819 143.852 494.742 143.72 494.631 143.622L494.541 143.554L481.115 135.021Z" fill="white" fill-opacity="0.2"/>
<path d="M404.961 293.665C404.573 293.604 404.208 293.861 404.145 294.238C404.088 294.584 404.305 294.912 404.64 295.011L404.735 295.032L428.619 298.779L427.453 347.779C427.362 351.561 423.931 354.418 420.104 353.957L419.887 353.928L402.787 351.317C402.398 351.258 402.034 351.516 401.973 351.893C401.917 352.24 402.136 352.566 402.472 352.664L402.566 352.685L419.666 355.295C424.349 356.011 428.616 352.62 428.866 348.049L428.875 347.811L430.055 298.209C430.063 297.894 429.852 297.619 429.55 297.53L429.457 297.509L404.961 293.665Z" fill="#1443BD"/>
<path d="M404.961 293.665C404.573 293.604 404.208 293.861 404.145 294.238C404.088 294.584 404.305 294.912 404.64 295.011L404.735 295.032L428.619 298.779L427.453 347.779C427.362 351.561 423.931 354.418 420.104 353.957L419.887 353.928L402.787 351.317C402.398 351.258 402.034 351.516 401.973 351.893C401.917 352.24 402.136 352.566 402.472 352.664L402.566 352.685L419.666 355.295C424.349 356.011 428.616 352.62 428.866 348.049L428.875 347.811L430.055 298.209C430.063 297.894 429.852 297.619 429.55 297.53L429.457 297.509L404.961 293.665Z" fill="white" fill-opacity="0.2"/>
<path d="M528.877 294.167C528.768 293.833 528.423 293.635 528.078 293.694L527.984 293.716L515.417 297.592C515.155 297.673 514.968 297.891 514.928 298.149L514.92 298.247L514.544 351.172C514.528 353.444 516.874 354.991 519.019 354.183L519.176 354.119L530.906 349.033C531.265 348.878 531.427 348.469 531.267 348.119C531.12 347.799 530.754 347.641 530.418 347.737L530.327 347.769L518.597 352.855C517.399 353.374 516.054 352.562 515.971 351.317L515.967 351.182L516.34 298.759L528.414 295.036C528.757 294.93 528.96 294.594 528.9 294.258L528.877 294.167Z" fill="#1443BD"/>
<path d="M528.877 294.167C528.768 293.833 528.423 293.635 528.078 293.694L527.984 293.716L515.417 297.592C515.155 297.673 514.968 297.891 514.928 298.149L514.92 298.247L514.544 351.172C514.528 353.444 516.874 354.991 519.019 354.183L519.176 354.119L530.906 349.033C531.265 348.878 531.427 348.469 531.267 348.119C531.12 347.799 530.754 347.641 530.418 347.737L530.327 347.769L518.597 352.855C517.399 353.374 516.054 352.562 515.971 351.317L515.967 351.182L516.34 298.759L528.414 295.036C528.757 294.93 528.96 294.594 528.9 294.258L528.877 294.167Z" fill="white" fill-opacity="0.2"/>
<path d="M405.676 200.389C405.316 200.383 405.014 200.638 404.96 200.975L404.952 201.068L403.082 301.919C403.075 302.302 403.388 302.617 403.781 302.624C404.141 302.63 404.443 302.375 404.497 302.038L404.505 301.944L406.375 201.093C406.382 200.711 406.069 200.396 405.676 200.389Z" fill="#1443BD"/>
<path d="M405.676 200.389C405.316 200.383 405.014 200.638 404.96 200.975L404.952 201.068L403.082 301.919C403.075 302.302 403.388 302.617 403.781 302.624C404.141 302.63 404.443 302.375 404.497 302.038L404.505 301.944L406.375 201.093C406.382 200.711 406.069 200.396 405.676 200.389Z" fill="white" fill-opacity="0.2"/>
<rect width="8.52271" height="4.62341" rx="2.3117" transform="matrix(-0.966613 0.25624 0.269769 0.962925 471.541 116.822)" fill="#1443BD"/>
<rect width="8.52271" height="4.62341" rx="2.3117" transform="matrix(-0.966613 0.25624 0.269769 0.962925 471.541 116.822)" fill="black" fill-opacity="0.65"/>
<path d="M464.724 121.437C459.822 123.436 447.078 123.744 444.801 118.207" stroke="#1443BD" stroke-linecap="round" stroke-linejoin="round"/>
<path d="M464.724 121.437C459.822 123.436 447.078 123.744 444.801 118.207" stroke="black" stroke-opacity="0.65" stroke-linecap="round" stroke-linejoin="round"/>
<path d="M466.147 62.834C452.865 62.834 438.539 74.0007 440.057 98.3645" stroke="#1443BD" stroke-width="2" stroke-linecap="round" stroke-linejoin="round"/>
<path d="M466.147 62.834C452.865 62.834 438.539 74.0007 440.057 98.3645" stroke="white" stroke-opacity="0.85" stroke-width="2" stroke-linecap="round" stroke-linejoin="round"/>
<rect width="11.3848" height="15.6888" rx="5.6924" transform="matrix(-1 0 0 1 447.172 97.4419)" fill="#2A84C6"/>
<rect width="11.3848" height="15.6888" rx="5.6924" transform="matrix(-1 0 0 1 445.275 97.4419)" fill="#2A84C6"/>
<rect width="11.3848" height="15.6888" rx="5.6924" transform="matrix(-1 0 0 1 445.275 97.4419)" fill="white" fill-opacity="0.65"/>
</g>
<g clip-path="url(#clip0_552_291)">
<path fill-rule="evenodd" clip-rule="evenodd" d="M637.188 76.2461C624.646 76.2461 614.48 86.1356 614.48 98.3348V98.3912C614.48 110.59 624.646 120.48 637.188 120.48H670.675C671.926 120.48 673.153 120.382 674.349 120.192L680.837 126.288C681.013 126.454 681.249 126.546 681.494 126.546C682.017 126.546 682.44 126.134 682.44 125.626L682.441 117.287C689 113.414 693.383 106.401 693.383 98.3912V98.3348C693.383 86.1356 683.216 76.2461 670.675 76.2461H637.188Z" fill="#1443BD"/>
<path fill-rule="evenodd" clip-rule="evenodd" d="M637.188 76.2461C624.646 76.2461 614.48 86.1356 614.48 98.3348V98.3912C614.48 110.59 624.646 120.48 637.188 120.48H670.675C671.926 120.48 673.153 120.382 674.349 120.192L680.837 126.288C681.013 126.454 681.249 126.546 681.494 126.546C682.017 126.546 682.44 126.134 682.44 125.626L682.441 117.287C689 113.414 693.383 106.401 693.383 98.3912V98.3348C693.383 86.1356 683.216 76.2461 670.675 76.2461H637.188Z" fill="white" fill-opacity="0.65"/>
<g filter="url(#filter0_ddddd_552_291)">
<path d="M642.696 23.3257H594.881C576.965 23.3257 562.441 37.4535 562.441 54.881C562.441 72.3085 576.965 86.4363 594.881 86.4363H642.696C660.611 86.4363 675.135 72.3085 675.135 54.881C675.135 37.4535 660.611 23.3257 642.696 23.3257Z" fill="white"/>
</g>
<g filter="url(#filter1_ddddd_552_291)">
<path fill-rule="evenodd" clip-rule="evenodd" d="M578.07 77.2568V93.7764C578.07 94.5025 578.675 95.0912 579.421 95.0912C579.772 95.0912 580.108 94.959 580.36 94.7225L592.839 83.0096L578.07 77.2568Z" fill="white"/>
</g>
<path d="M597.077 58.825C599.97 58.825 602.315 56.5439 602.315 53.7301C602.315 50.9163 599.97 48.6353 597.077 48.6353C594.185 48.6353 591.84 50.9163 591.84 53.7301C591.84 56.5439 594.185 58.825 597.077 58.825Z" fill="#1443BD"/>
<path d="M597.077 58.825C599.97 58.825 602.315 56.5439 602.315 53.7301C602.315 50.9163 599.97 48.6353 597.077 48.6353C594.185 48.6353 591.84 50.9163 591.84 53.7301C591.84 56.5439 594.185 58.825 597.077 58.825Z" fill="black" fill-opacity="0.5"/>
<path d="M618.535 58.825C621.428 58.825 623.773 56.5439 623.773 53.7301C623.773 50.9163 621.428 48.6353 618.535 48.6353C615.642 48.6353 613.297 50.9163 613.297 53.7301C613.297 56.5439 615.642 58.825 618.535 58.825Z" fill="#1443BD"/>
<path d="M618.535 58.825C621.428 58.825 623.773 56.5439 623.773 53.7301C623.773 50.9163 621.428 48.6353 618.535 48.6353C615.642 48.6353 613.297 50.9163 613.297 53.7301C613.297 56.5439 615.642 58.825 618.535 58.825Z" fill="black" fill-opacity="0.5"/>
<path d="M640.499 58.825C643.392 58.825 645.737 56.5439 645.737 53.7301C645.737 50.9163 643.392 48.6353 640.499 48.6353C637.607 48.6353 635.262 50.9163 635.262 53.7301C635.262 56.5439 637.607 58.825 640.499 58.825Z" fill="#1443BD"/>
<path d="M640.499 58.825C643.392 58.825 645.737 56.5439 645.737 53.7301C645.737 50.9163 643.392 48.6353 640.499 48.6353C637.607 48.6353 635.262 50.9163 635.262 53.7301C635.262 56.5439 637.607 58.825 640.499 58.825Z" fill="black" fill-opacity="0.5"/>
</g>
<path d="M132.835 211.722C132.398 211.776 131.964 211.83 131.537 211.88C131.046 211.938 130.6 211.596 130.54 211.115C130.481 210.636 130.827 210.202 131.314 210.141C131.317 210.141 131.319 210.141 131.321 210.141C132.093 210.049 132.879 209.952 133.678 209.846C133.68 209.846 133.68 209.846 133.682 209.846C134.169 209.785 134.617 210.121 134.684 210.6C134.748 211.079 134.406 211.52 133.914 211.585C133.552 211.632 133.191 211.677 132.835 211.722ZM136.276 211.264C135.793 211.324 135.348 210.994 135.277 210.519C135.205 210.04 135.545 209.596 136.034 209.527C136.809 209.416 137.594 209.302 138.389 209.182C138.885 209.106 139.335 209.437 139.411 209.916C139.487 210.395 139.151 210.843 138.664 210.915C137.863 211.036 137.073 211.153 136.294 211.264C136.285 211.261 136.28 211.261 136.276 211.264ZM129.171 212.145C129.164 212.145 129.158 212.148 129.153 212.148C128.342 212.233 127.538 212.31 126.764 212.377C126.273 212.42 125.836 212.064 125.793 211.583C125.749 211.102 126.114 210.681 126.603 210.631C127.368 210.564 128.163 210.487 128.965 210.404C129.456 210.352 129.897 210.701 129.95 211.183C129.998 211.657 129.651 212.085 129.171 212.145ZM140.996 210.548C140.52 210.609 140.077 210.287 139.999 209.819C139.919 209.342 140.249 208.89 140.739 208.813C141.513 208.69 142.296 208.561 143.088 208.429C143.568 208.346 144.039 208.667 144.122 209.144C144.205 209.621 143.878 210.076 143.391 210.157C142.594 210.289 141.807 210.42 141.028 210.544C141.016 210.546 141.007 210.548 140.996 210.548ZM124.417 212.562C124.401 212.564 124.382 212.566 124.364 212.566C123.539 212.622 122.731 212.67 121.961 212.703C121.468 212.726 121.049 212.352 121.027 211.869C121.004 211.385 121.385 210.976 121.879 210.953C122.634 210.919 123.429 210.874 124.24 210.818C124.734 210.784 125.161 211.149 125.195 211.63C125.228 212.096 124.883 212.503 124.417 212.562ZM145.704 209.758C145.234 209.817 144.795 209.504 144.71 209.043C144.623 208.566 144.946 208.112 145.433 208.026C146.207 207.891 146.988 207.752 147.779 207.608C148.266 207.518 148.732 207.833 148.821 208.31C148.911 208.786 148.592 209.243 148.105 209.331C147.312 209.475 146.527 209.614 145.748 209.752C145.734 209.754 145.721 209.756 145.704 209.758ZM119.648 212.771C119.616 212.775 119.582 212.778 119.547 212.778C118.709 212.791 117.894 212.789 117.126 212.773C116.633 212.762 116.24 212.361 116.251 211.878C116.263 211.394 116.672 211.009 117.165 211.021C117.91 211.036 118.702 211.039 119.517 211.025C120.011 211.016 120.418 211.403 120.427 211.887C120.436 212.339 120.096 212.717 119.648 212.771ZM150.402 208.906C149.938 208.964 149.499 208.658 149.409 208.202C149.315 207.727 149.634 207.268 150.119 207.176C150.893 207.029 151.672 206.881 152.46 206.73C152.949 206.636 153.415 206.946 153.512 207.421C153.608 207.896 153.291 208.357 152.806 208.451C152.016 208.604 151.233 208.753 150.457 208.899C150.441 208.901 150.42 208.903 150.402 208.906ZM155.09 207.999C154.628 208.058 154.194 207.756 154.1 207.304C154.001 206.829 154.316 206.368 154.798 206.271C155.572 206.118 156.351 205.961 157.134 205.801C157.621 205.702 158.092 206.008 158.193 206.48C158.294 206.955 157.981 207.419 157.499 207.518C156.714 207.677 155.93 207.835 155.156 207.99C155.133 207.992 155.11 207.997 155.09 207.999ZM159.766 207.047C159.309 207.104 158.875 206.809 158.778 206.359C158.675 205.886 158.985 205.421 159.468 205.319C160.242 205.16 161.018 204.996 161.799 204.829C162.279 204.726 162.759 205.027 162.862 205.499C162.968 205.972 162.66 206.44 162.178 206.541C161.395 206.708 160.614 206.872 159.84 207.032C159.814 207.041 159.789 207.045 159.766 207.047ZM114.88 212.658C114.82 212.665 114.761 212.667 114.699 212.663C113.833 212.6 113.013 212.512 112.259 212.402C111.77 212.33 111.435 211.884 111.508 211.405C111.582 210.926 112.036 210.595 112.526 210.667C113.233 210.771 114.009 210.854 114.832 210.913C115.326 210.949 115.695 211.369 115.659 211.851C115.624 212.276 115.291 212.607 114.88 212.658ZM164.433 206.057C163.979 206.114 163.547 205.823 163.448 205.378C163.342 204.906 163.646 204.438 164.128 204.334C164.9 204.168 165.676 203.997 166.455 203.826C166.939 203.72 167.415 204.017 167.525 204.489C167.633 204.962 167.33 205.43 166.847 205.535C166.067 205.709 165.288 205.877 164.514 206.044C164.489 206.051 164.461 206.053 164.433 206.057ZM169.094 205.032C168.641 205.088 168.212 204.8 168.108 204.357C167.998 203.884 168.299 203.414 168.781 203.306C169.553 203.133 170.327 202.959 171.106 202.782C171.588 202.671 172.068 202.966 172.179 203.439C172.291 203.911 171.99 204.381 171.508 204.492C170.727 204.669 169.951 204.843 169.177 205.016C169.151 205.025 169.124 205.029 169.094 205.032ZM173.747 203.976C173.299 204.033 172.87 203.749 172.764 203.308C172.652 202.838 172.95 202.365 173.43 202.255C174.202 202.078 174.976 201.898 175.753 201.718C176.235 201.605 176.715 201.898 176.83 202.368C176.945 202.838 176.648 203.31 176.166 203.423C175.387 203.605 174.611 203.785 173.839 203.963C173.809 203.967 173.777 203.972 173.747 203.976ZM110.171 211.934C110.056 211.947 109.939 211.941 109.822 211.909C108.906 211.662 108.097 211.358 107.417 211.005C106.981 210.778 106.816 210.247 107.045 209.819C107.277 209.392 107.819 209.23 108.256 209.455C108.821 209.747 109.505 210.004 110.295 210.217C110.773 210.346 111.053 210.827 110.922 211.295C110.821 211.648 110.518 211.891 110.171 211.934ZM178.394 202.892C177.946 202.948 177.519 202.667 177.411 202.228C177.294 201.758 177.59 201.283 178.07 201.171C178.84 200.989 179.614 200.804 180.39 200.62C180.87 200.505 181.355 200.793 181.472 201.263C181.589 201.733 181.295 202.208 180.815 202.323C180.039 202.507 179.265 202.692 178.493 202.874C178.458 202.883 178.426 202.887 178.394 202.892ZM183.034 201.783C182.588 201.839 182.163 201.56 182.053 201.124C181.934 200.653 182.228 200.179 182.708 200.062C183.477 199.875 184.249 199.688 185.023 199.499C185.501 199.382 185.988 199.668 186.107 200.138C186.226 200.608 185.935 201.083 185.455 201.2C184.681 201.389 183.907 201.578 183.135 201.765C183.1 201.772 183.068 201.778 183.034 201.783ZM187.667 200.651C187.223 200.707 186.798 200.431 186.686 199.996C186.564 199.526 186.856 199.052 187.336 198.932C188.105 198.743 188.877 198.552 189.649 198.359C190.129 198.239 190.616 198.523 190.738 198.991C190.859 199.461 190.57 199.938 190.09 200.057C189.316 200.251 188.544 200.442 187.772 200.631C187.738 200.64 187.703 200.647 187.667 200.651ZM192.297 199.497C191.856 199.553 191.431 199.279 191.319 198.845C191.197 198.377 191.484 197.897 191.964 197.778C192.734 197.585 193.503 197.389 194.275 197.195C194.753 197.074 195.242 197.355 195.366 197.825C195.49 198.293 195.203 198.773 194.723 198.894C193.951 199.09 193.179 199.285 192.407 199.479C192.368 199.486 192.332 199.492 192.297 199.497ZM196.912 198.327C196.473 198.383 196.048 198.111 195.933 197.679C195.809 197.211 196.094 196.732 196.574 196.61C197.341 196.415 198.111 196.217 198.878 196.019C199.356 195.897 199.845 196.176 199.971 196.644C200.097 197.112 199.81 197.591 199.333 197.715C198.563 197.913 197.794 198.111 197.024 198.307C196.987 198.316 196.951 198.323 196.912 198.327ZM106.126 209.632C105.812 209.671 105.488 209.547 105.288 209.277C105.235 209.205 105.185 209.133 105.137 209.059C104.695 208.382 104.335 207.698 104.062 207.023C103.88 206.573 104.105 206.064 104.565 205.886C105.024 205.709 105.543 205.929 105.725 206.379C105.954 206.948 106.264 207.533 106.643 208.114C106.673 208.159 106.703 208.202 106.735 208.244C107.025 208.636 106.937 209.185 106.535 209.468C106.414 209.56 106.271 209.614 106.126 209.632ZM201.526 197.139C201.087 197.193 200.665 196.923 200.548 196.493C200.421 196.026 200.706 195.546 201.184 195.423C201.953 195.222 202.723 195.022 203.492 194.822C203.972 194.696 204.459 194.975 204.588 195.443C204.717 195.911 204.432 196.39 203.954 196.516C203.185 196.718 202.413 196.919 201.643 197.119C201.604 197.126 201.565 197.132 201.526 197.139ZM206.148 195.929C205.711 195.983 205.289 195.715 205.171 195.288C205.043 194.82 205.325 194.338 205.803 194.212C206.575 194.01 207.344 193.805 208.116 193.6C208.596 193.474 209.085 193.751 209.214 194.217C209.343 194.685 209.06 195.166 208.585 195.292C207.813 195.497 207.041 195.702 206.269 195.904C206.228 195.918 206.187 195.924 206.148 195.929ZM210.764 194.705C210.328 194.759 209.908 194.493 209.788 194.066C209.657 193.598 209.94 193.116 210.415 192.991C211.182 192.786 211.95 192.581 212.717 192.374C213.192 192.246 213.686 192.52 213.817 192.988C213.948 193.456 213.668 193.938 213.19 194.066C212.423 194.273 211.653 194.478 210.886 194.682C210.847 194.691 210.806 194.7 210.764 194.705ZM215.372 193.467C214.938 193.521 214.517 193.256 214.396 192.831C214.265 192.365 214.543 191.881 215.021 191.753C215.788 191.546 216.555 191.337 217.32 191.13C217.795 191.002 218.289 191.274 218.422 191.74C218.553 192.205 218.275 192.689 217.8 192.82C217.033 193.029 216.265 193.236 215.498 193.445C215.455 193.454 215.413 193.461 215.372 193.467ZM219.973 192.217C219.539 192.271 219.118 192.007 218.999 191.582C218.866 191.116 219.143 190.633 219.621 190.502C220.388 190.293 221.156 190.081 221.92 189.872C222.396 189.742 222.89 190.014 223.023 190.48C223.156 190.945 222.878 191.429 222.403 191.56C221.638 191.771 220.871 191.98 220.101 192.19C220.058 192.201 220.016 192.21 219.973 192.217ZM224.571 190.952C224.139 191.006 223.719 190.743 223.597 190.32C223.464 189.854 223.74 189.371 224.215 189.238C224.982 189.026 225.747 188.813 226.512 188.601C226.987 188.468 227.481 188.741 227.617 189.204C227.752 189.67 227.477 190.153 227.001 190.286C226.236 190.498 225.469 190.711 224.702 190.923C224.658 190.936 224.615 190.945 224.571 190.952ZM229.165 189.674C228.733 189.728 228.315 189.467 228.191 189.044C228.055 188.579 228.331 188.095 228.807 187.96C229.574 187.746 230.339 187.532 231.101 187.316C231.574 187.184 232.073 187.451 232.208 187.917C232.344 188.383 232.07 188.869 231.595 189.002C230.83 189.215 230.065 189.431 229.298 189.645C229.254 189.661 229.211 189.67 229.165 189.674ZM104.447 205.308C104.436 205.311 104.424 205.31 104.415 205.313C103.924 205.355 103.487 205.002 103.444 204.519C103.363 203.657 103.423 202.793 103.623 201.945C103.733 201.472 104.213 201.178 104.695 201.288C105.178 201.396 105.479 201.866 105.366 202.338C105.21 203.004 105.162 203.684 105.224 204.359C105.267 204.831 104.921 205.25 104.447 205.308ZM233.756 188.385C233.327 188.439 232.909 188.18 232.785 187.757C232.647 187.292 232.923 186.806 233.398 186.673C234.165 186.457 234.93 186.241 235.69 186.025C236.168 185.89 236.662 186.158 236.8 186.624C236.938 187.089 236.664 187.575 236.189 187.71C235.426 187.926 234.661 188.142 233.894 188.358C233.846 188.372 233.802 188.378 233.756 188.385ZM238.346 187.085C237.916 187.139 237.498 186.88 237.374 186.459C237.236 185.994 237.51 185.508 237.983 185.373C238.75 185.154 239.515 184.936 240.275 184.718C240.75 184.583 241.247 184.848 241.384 185.314C241.522 185.78 241.251 186.266 240.776 186.401C240.013 186.619 239.248 186.837 238.481 187.055C238.437 187.069 238.392 187.08 238.346 187.085ZM242.93 185.773C242.501 185.827 242.085 185.568 241.959 185.15C241.821 184.684 242.092 184.198 242.565 184.063C243.332 183.843 244.095 183.622 244.855 183.404C245.33 183.267 245.827 183.532 245.967 183.998C246.107 184.464 245.836 184.95 245.36 185.087C244.6 185.307 243.835 185.526 243.068 185.746C243.022 185.76 242.976 185.769 242.93 185.773ZM247.513 184.452C247.085 184.506 246.667 184.25 246.541 183.831C246.401 183.368 246.672 182.88 247.145 182.743C247.912 182.52 248.675 182.299 249.435 182.079C249.908 181.942 250.407 182.205 250.547 182.671C250.687 183.134 250.418 183.622 249.943 183.76C249.182 183.98 248.42 184.203 247.653 184.425C247.607 184.437 247.558 184.446 247.513 184.452ZM252.09 183.121C251.663 183.175 251.247 182.918 251.121 182.502C250.981 182.038 251.25 181.55 251.723 181.411C252.49 181.186 253.253 180.963 254.01 180.74C254.484 180.601 254.982 180.864 255.124 181.33C255.267 181.793 254.998 182.281 254.523 182.421C253.765 182.644 253.002 182.866 252.233 183.091C252.187 183.105 252.139 183.114 252.09 183.121ZM105.456 200.86C105.274 200.883 105.086 200.851 104.914 200.759C104.48 200.527 104.321 199.994 104.558 199.569C104.944 198.878 105.431 198.188 106.007 197.515C106.324 197.144 106.889 197.096 107.268 197.407C107.647 197.717 107.695 198.271 107.378 198.642C106.878 199.227 106.457 199.821 106.129 200.408C105.986 200.667 105.731 200.827 105.456 200.86ZM256.668 181.78C256.241 181.834 255.825 181.579 255.699 181.163C255.556 180.7 255.825 180.212 256.298 180.072C257.065 179.847 257.828 179.622 258.584 179.397C259.057 179.258 259.555 179.519 259.7 179.982C259.842 180.446 259.574 180.936 259.1 181.075C258.342 181.298 257.58 181.523 256.813 181.75C256.764 181.762 256.716 181.773 256.668 181.78ZM261.241 180.428C260.816 180.482 260.4 180.227 260.272 179.811C260.129 179.348 260.396 178.859 260.869 178.718C261.639 178.49 262.399 178.263 263.154 178.038C263.628 177.899 264.126 178.16 264.271 178.623C264.415 179.087 264.147 179.575 263.676 179.717C262.92 179.942 262.158 180.169 261.388 180.396C261.338 180.412 261.289 180.421 261.241 180.428ZM265.812 179.066C265.387 179.12 264.974 178.866 264.843 178.452C264.698 177.989 264.964 177.501 265.438 177.359C266.207 177.129 266.967 176.902 267.721 176.675C268.192 176.533 268.695 176.794 268.839 177.255C268.984 177.719 268.718 178.209 268.247 178.351C267.493 178.578 266.731 178.805 265.961 179.035C265.911 179.051 265.86 179.06 265.812 179.066ZM270.381 177.696C269.956 177.75 269.542 177.498 269.414 177.084C269.269 176.621 269.533 176.13 270.006 175.989C270.776 175.757 271.538 175.527 272.289 175.3C272.762 175.158 273.263 175.417 273.408 175.878C273.553 176.342 273.288 176.832 272.815 176.974C272.064 177.201 271.302 177.431 270.532 177.663C270.479 177.68 270.429 177.689 270.381 177.696ZM108.469 197.279C108.189 197.315 107.895 197.218 107.691 196.995C107.36 196.635 107.39 196.082 107.757 195.758C108.336 195.247 108.984 194.732 109.68 194.23C110.077 193.942 110.638 194.025 110.932 194.417C111.226 194.806 111.141 195.355 110.741 195.643C110.093 196.111 109.491 196.588 108.956 197.06C108.814 197.184 108.644 197.256 108.469 197.279ZM274.945 176.317C274.522 176.371 274.108 176.119 273.978 175.707C273.831 175.246 274.097 174.753 274.568 174.612C275.34 174.378 276.1 174.146 276.849 173.919C277.32 173.777 277.823 174.034 277.97 174.495C278.117 174.958 277.852 175.449 277.379 175.593C276.63 175.82 275.868 176.052 275.096 176.286C275.048 176.299 274.997 176.31 274.945 176.317ZM279.508 174.929C279.086 174.983 278.672 174.733 278.541 174.319C278.394 173.858 278.659 173.365 279.129 173.221C279.904 172.985 280.664 172.753 281.41 172.524C281.883 172.38 282.384 172.636 282.531 173.098C282.678 173.559 282.416 174.052 281.943 174.196C281.197 174.425 280.436 174.657 279.662 174.893C279.612 174.911 279.561 174.922 279.508 174.929ZM284.07 173.532C283.647 173.586 283.236 173.336 283.103 172.924C282.954 172.463 283.218 171.97 283.689 171.826C284.467 171.588 285.228 171.354 285.967 171.125C286.438 170.978 286.941 171.235 287.091 171.698C287.24 172.159 286.978 172.652 286.505 172.798C285.763 173.028 285.003 173.262 284.224 173.5C284.173 173.514 284.123 173.525 284.07 173.532ZM112.298 194.493C111.963 194.536 111.618 194.39 111.428 194.091C111.164 193.681 111.29 193.139 111.708 192.883C112.367 192.478 113.075 192.068 113.812 191.67C114.244 191.436 114.788 191.589 115.029 192.014C115.268 192.437 115.112 192.97 114.678 193.204C113.97 193.587 113.293 193.978 112.661 194.365C112.546 194.435 112.422 194.478 112.298 194.493ZM288.629 172.123C288.209 172.175 287.796 171.928 287.665 171.518C287.515 171.057 287.777 170.564 288.248 170.418C289.034 170.175 289.792 169.939 290.527 169.712C290.998 169.565 291.501 169.82 291.65 170.281C291.799 170.742 291.54 171.235 291.069 171.381C290.334 171.61 289.574 171.847 288.788 172.09C288.735 172.105 288.682 172.117 288.629 172.123ZM293.189 170.706C292.768 170.758 292.357 170.513 292.224 170.103C292.075 169.642 292.334 169.149 292.805 169.001C293.602 168.751 294.363 168.515 295.084 168.288C295.555 168.139 296.058 168.393 296.209 168.854C296.361 169.316 296.101 169.808 295.63 169.957C294.909 170.184 294.149 170.42 293.35 170.67C293.294 170.688 293.242 170.699 293.189 170.706ZM116.476 192.221C116.109 192.268 115.734 192.084 115.56 191.74C115.342 191.305 115.523 190.779 115.964 190.565C116.662 190.225 117.4 189.886 118.158 189.553C118.608 189.355 119.138 189.551 119.341 189.991C119.543 190.432 119.343 190.952 118.893 191.15C118.155 191.474 117.439 191.807 116.759 192.136C116.669 192.181 116.573 192.21 116.476 192.221ZM297.748 169.275C297.328 169.327 296.917 169.082 296.783 168.674C296.632 168.213 296.891 167.721 297.362 167.572C298.194 167.311 298.954 167.07 299.641 166.852C300.112 166.704 300.615 166.956 300.769 167.417C300.92 167.878 300.663 168.371 300.192 168.521C299.505 168.74 298.743 168.98 297.909 169.241C297.856 169.257 297.801 169.268 297.748 169.275ZM302.312 167.831C301.894 167.883 301.483 167.64 301.347 167.232C301.194 166.771 301.451 166.276 301.922 166.128C303.33 165.68 304.081 165.437 304.081 165.437C304.549 165.286 305.057 165.536 305.211 165.995C305.365 166.454 305.11 166.951 304.641 167.102C304.641 167.102 303.888 167.345 302.475 167.795C302.422 167.813 302.367 167.824 302.312 167.831ZM120.836 190.295C120.445 190.345 120.053 190.133 119.896 189.76C119.708 189.312 119.926 188.799 120.381 188.615C121.102 188.322 121.858 188.03 122.625 187.742C123.087 187.568 123.604 187.796 123.78 188.248C123.957 188.7 123.725 189.206 123.264 189.38C122.51 189.661 121.771 189.949 121.063 190.237C120.99 190.266 120.912 190.286 120.836 190.295ZM125.301 188.619C124.892 188.671 124.49 188.439 124.346 188.043C124.18 187.586 124.421 187.087 124.888 186.923C125.627 186.664 126.392 186.405 127.166 186.153C127.637 185.998 128.142 186.248 128.299 186.707C128.455 187.166 128.202 187.663 127.733 187.816C126.971 188.066 126.215 188.32 125.489 188.574C125.427 188.597 125.363 188.61 125.301 188.619ZM129.84 187.134C129.417 187.186 129.006 186.938 128.873 186.527C128.726 186.066 128.988 185.573 129.458 185.429C130.207 185.199 130.981 184.968 131.762 184.743C132.235 184.605 132.734 184.871 132.874 185.334C133.014 185.798 132.743 186.286 132.27 186.423C131.5 186.646 130.736 186.875 129.996 187.103C129.943 187.116 129.89 187.127 129.84 187.134ZM134.427 185.805C133.993 185.859 133.572 185.595 133.453 185.17C133.32 184.704 133.597 184.221 134.073 184.09C134.836 183.881 135.616 183.674 136.395 183.472C136.873 183.348 137.362 183.627 137.488 184.095C137.615 184.563 137.33 185.042 136.852 185.166C136.083 185.366 135.311 185.571 134.555 185.778C134.512 185.791 134.468 185.8 134.427 185.805ZM139.055 184.605C138.612 184.662 138.184 184.385 138.074 183.948C137.955 183.478 138.246 183.004 138.724 182.884C139.491 182.695 140.279 182.509 141.06 182.326C141.542 182.216 142.023 182.506 142.137 182.977C142.252 183.447 141.954 183.919 141.474 184.032C140.7 184.212 139.919 184.398 139.158 184.583C139.124 184.594 139.089 184.601 139.055 184.605ZM143.713 183.523C143.261 183.58 142.829 183.292 142.728 182.846C142.62 182.374 142.923 181.906 143.405 181.8C144.189 181.627 144.981 181.46 145.757 181.298C146.242 181.197 146.715 181.501 146.818 181.975C146.92 182.45 146.612 182.914 146.127 183.015C145.358 183.175 144.574 183.341 143.796 183.512C143.77 183.517 143.741 183.521 143.713 183.523ZM148.406 182.556C147.942 182.614 147.505 182.311 147.416 181.856C147.321 181.381 147.636 180.92 148.121 180.828C149.616 180.54 150.477 180.396 150.512 180.389C150.992 180.306 151.461 180.628 151.546 181.107C151.628 181.584 151.302 182.036 150.815 182.119C150.806 182.122 149.938 182.266 148.468 182.549C148.445 182.551 148.426 182.554 148.406 182.556Z" fill="#B7EE81"/>
<path d="M132.835 211.722C132.398 211.776 131.964 211.83 131.537 211.88C131.046 211.938 130.6 211.596 130.54 211.115C130.481 210.636 130.827 210.202 131.314 210.141C131.317 210.141 131.319 210.141 131.321 210.141C132.093 210.049 132.879 209.952 133.678 209.846C133.68 209.846 133.68 209.846 133.682 209.846C134.169 209.785 134.617 210.121 134.684 210.6C134.748 211.079 134.406 211.52 133.914 211.585C133.552 211.632 133.191 211.677 132.835 211.722ZM136.276 211.264C135.793 211.324 135.348 210.994 135.277 210.519C135.205 210.04 135.545 209.596 136.034 209.527C136.809 209.416 137.594 209.302 138.389 209.182C138.885 209.106 139.335 209.437 139.411 209.916C139.487 210.395 139.151 210.843 138.664 210.915C137.863 211.036 137.073 211.153 136.294 211.264C136.285 211.261 136.28 211.261 136.276 211.264ZM129.171 212.145C129.164 212.145 129.158 212.148 129.153 212.148C128.342 212.233 127.538 212.31 126.764 212.377C126.273 212.42 125.836 212.064 125.793 211.583C125.749 211.102 126.114 210.681 126.603 210.631C127.368 210.564 128.163 210.487 128.965 210.404C129.456 210.352 129.897 210.701 129.95 211.183C129.998 211.657 129.651 212.085 129.171 212.145ZM140.996 210.548C140.52 210.609 140.077 210.287 139.999 209.819C139.919 209.342 140.249 208.89 140.739 208.813C141.513 208.69 142.296 208.561 143.088 208.429C143.568 208.346 144.039 208.667 144.122 209.144C144.205 209.621 143.878 210.076 143.391 210.157C142.594 210.289 141.807 210.42 141.028 210.544C141.016 210.546 141.007 210.548 140.996 210.548ZM124.417 212.562C124.401 212.564 124.382 212.566 124.364 212.566C123.539 212.622 122.731 212.67 121.961 212.703C121.468 212.726 121.049 212.352 121.027 211.869C121.004 211.385 121.385 210.976 121.879 210.953C122.634 210.919 123.429 210.874 124.24 210.818C124.734 210.784 125.161 211.149 125.195 211.63C125.228 212.096 124.883 212.503 124.417 212.562ZM145.704 209.758C145.234 209.817 144.795 209.504 144.71 209.043C144.623 208.566 144.946 208.112 145.433 208.026C146.207 207.891 146.988 207.752 147.779 207.608C148.266 207.518 148.732 207.833 148.821 208.31C148.911 208.786 148.592 209.243 148.105 209.331C147.312 209.475 146.527 209.614 145.748 209.752C145.734 209.754 145.721 209.756 145.704 209.758ZM119.648 212.771C119.616 212.775 119.582 212.778 119.547 212.778C118.709 212.791 117.894 212.789 117.126 212.773C116.633 212.762 116.24 212.361 116.251 211.878C116.263 211.394 116.672 211.009 117.165 211.021C117.91 211.036 118.702 211.039 119.517 211.025C120.011 211.016 120.418 211.403 120.427 211.887C120.436 212.339 120.096 212.717 119.648 212.771ZM150.402 208.906C149.938 208.964 149.499 208.658 149.409 208.202C149.315 207.727 149.634 207.268 150.119 207.176C150.893 207.029 151.672 206.881 152.46 206.73C152.949 206.636 153.415 206.946 153.512 207.421C153.608 207.896 153.291 208.357 152.806 208.451C152.016 208.604 151.233 208.753 150.457 208.899C150.441 208.901 150.42 208.903 150.402 208.906ZM155.09 207.999C154.628 208.058 154.194 207.756 154.1 207.304C154.001 206.829 154.316 206.368 154.798 206.271C155.572 206.118 156.351 205.961 157.134 205.801C157.621 205.702 158.092 206.008 158.193 206.48C158.294 206.955 157.981 207.419 157.499 207.518C156.714 207.677 155.93 207.835 155.156 207.99C155.133 207.992 155.11 207.997 155.09 207.999ZM159.766 207.047C159.309 207.104 158.875 206.809 158.778 206.359C158.675 205.886 158.985 205.421 159.468 205.319C160.242 205.16 161.018 204.996 161.799 204.829C162.279 204.726 162.759 205.027 162.862 205.499C162.968 205.972 162.66 206.44 162.178 206.541C161.395 206.708 160.614 206.872 159.84 207.032C159.814 207.041 159.789 207.045 159.766 207.047ZM114.88 212.658C114.82 212.665 114.761 212.667 114.699 212.663C113.833 212.6 113.013 212.512 112.259 212.402C111.77 212.33 111.435 211.884 111.508 211.405C111.582 210.926 112.036 210.595 112.526 210.667C113.233 210.771 114.009 210.854 114.832 210.913C115.326 210.949 115.695 211.369 115.659 211.851C115.624 212.276 115.291 212.607 114.88 212.658ZM164.433 206.057C163.979 206.114 163.547 205.823 163.448 205.378C163.342 204.906 163.646 204.438 164.128 204.334C164.9 204.168 165.676 203.997 166.455 203.826C166.939 203.72 167.415 204.017 167.525 204.489C167.633 204.962 167.33 205.43 166.847 205.535C166.067 205.709 165.288 205.877 164.514 206.044C164.489 206.051 164.461 206.053 164.433 206.057ZM169.094 205.032C168.641 205.088 168.212 204.8 168.108 204.357C167.998 203.884 168.299 203.414 168.781 203.306C169.553 203.133 170.327 202.959 171.106 202.782C171.588 202.671 172.068 202.966 172.179 203.439C172.291 203.911 171.99 204.381 171.508 204.492C170.727 204.669 169.951 204.843 169.177 205.016C169.151 205.025 169.124 205.029 169.094 205.032ZM173.747 203.976C173.299 204.033 172.87 203.749 172.764 203.308C172.652 202.838 172.95 202.365 173.43 202.255C174.202 202.078 174.976 201.898 175.753 201.718C176.235 201.605 176.715 201.898 176.83 202.368C176.945 202.838 176.648 203.31 176.166 203.423C175.387 203.605 174.611 203.785 173.839 203.963C173.809 203.967 173.777 203.972 173.747 203.976ZM110.171 211.934C110.056 211.947 109.939 211.941 109.822 211.909C108.906 211.662 108.097 211.358 107.417 211.005C106.981 210.778 106.816 210.247 107.045 209.819C107.277 209.392 107.819 209.23 108.256 209.455C108.821 209.747 109.505 210.004 110.295 210.217C110.773 210.346 111.053 210.827 110.922 211.295C110.821 211.648 110.518 211.891 110.171 211.934ZM178.394 202.892C177.946 202.948 177.519 202.667 177.411 202.228C177.294 201.758 177.59 201.283 178.07 201.171C178.84 200.989 179.614 200.804 180.39 200.62C180.87 200.505 181.355 200.793 181.472 201.263C181.589 201.733 181.295 202.208 180.815 202.323C180.039 202.507 179.265 202.692 178.493 202.874C178.458 202.883 178.426 202.887 178.394 202.892ZM183.034 201.783C182.588 201.839 182.163 201.56 182.053 201.124C181.934 200.653 182.228 200.179 182.708 200.062C183.477 199.875 184.249 199.688 185.023 199.499C185.501 199.382 185.988 199.668 186.107 200.138C186.226 200.608 185.935 201.083 185.455 201.2C184.681 201.389 183.907 201.578 183.135 201.765C183.1 201.772 183.068 201.778 183.034 201.783ZM187.667 200.651C187.223 200.707 186.798 200.431 186.686 199.996C186.564 199.526 186.856 199.052 187.336 198.932C188.105 198.743 188.877 198.552 189.649 198.359C190.129 198.239 190.616 198.523 190.738 198.991C190.859 199.461 190.57 199.938 190.09 200.057C189.316 200.251 188.544 200.442 187.772 200.631C187.738 200.64 187.703 200.647 187.667 200.651ZM192.297 199.497C191.856 199.553 191.431 199.279 191.319 198.845C191.197 198.377 191.484 197.897 191.964 197.778C192.734 197.585 193.503 197.389 194.275 197.195C194.753 197.074 195.242 197.355 195.366 197.825C195.49 198.293 195.203 198.773 194.723 198.894C193.951 199.09 193.179 199.285 192.407 199.479C192.368 199.486 192.332 199.492 192.297 199.497ZM196.912 198.327C196.473 198.383 196.048 198.111 195.933 197.679C195.809 197.211 196.094 196.732 196.574 196.61C197.341 196.415 198.111 196.217 198.878 196.019C199.356 195.897 199.845 196.176 199.971 196.644C200.097 197.112 199.81 197.591 199.333 197.715C198.563 197.913 197.794 198.111 197.024 198.307C196.987 198.316 196.951 198.323 196.912 198.327ZM106.126 209.632C105.812 209.671 105.488 209.547 105.288 209.277C105.235 209.205 105.185 209.133 105.137 209.059C104.695 208.382 104.335 207.698 104.062 207.023C103.88 206.573 104.105 206.064 104.565 205.886C105.024 205.709 105.543 205.929 105.725 206.379C105.954 206.948 106.264 207.533 106.643 208.114C106.673 208.159 106.703 208.202 106.735 208.244C107.025 208.636 106.937 209.185 106.535 209.468C106.414 209.56 106.271 209.614 106.126 209.632ZM201.526 197.139C201.087 197.193 200.665 196.923 200.548 196.493C200.421 196.026 200.706 195.546 201.184 195.423C201.953 195.222 202.723 195.022 203.492 194.822C203.972 194.696 204.459 194.975 204.588 195.443C204.717 195.911 204.432 196.39 203.954 196.516C203.185 196.718 202.413 196.919 201.643 197.119C201.604 197.126 201.565 197.132 201.526 197.139ZM206.148 195.929C205.711 195.983 205.289 195.715 205.171 195.288C205.043 194.82 205.325 194.338 205.803 194.212C206.575 194.01 207.344 193.805 208.116 193.6C208.596 193.474 209.085 193.751 209.214 194.217C209.343 194.685 209.06 195.166 208.585 195.292C207.813 195.497 207.041 195.702 206.269 195.904C206.228 195.918 206.187 195.924 206.148 195.929ZM210.764 194.705C210.328 194.759 209.908 194.493 209.788 194.066C209.657 193.598 209.94 193.116 210.415 192.991C211.182 192.786 211.95 192.581 212.717 192.374C213.192 192.246 213.686 192.52 213.817 192.988C213.948 193.456 213.668 193.938 213.19 194.066C212.423 194.273 211.653 194.478 210.886 194.682C210.847 194.691 210.806 194.7 210.764 194.705ZM215.372 193.467C214.938 193.521 214.517 193.256 214.396 192.831C214.265 192.365 214.543 191.881 215.021 191.753C215.788 191.546 216.555 191.337 217.32 191.13C217.795 191.002 218.289 191.274 218.422 191.74C218.553 192.205 218.275 192.689 217.8 192.82C217.033 193.029 216.265 193.236 215.498 193.445C215.455 193.454 215.413 193.461 215.372 193.467ZM219.973 192.217C219.539 192.271 219.118 192.007 218.999 191.582C218.866 191.116 219.143 190.633 219.621 190.502C220.388 190.293 221.156 190.081 221.92 189.872C222.396 189.742 222.89 190.014 223.023 190.48C223.156 190.945 222.878 191.429 222.403 191.56C221.638 191.771 220.871 191.98 220.101 192.19C220.058 192.201 220.016 192.21 219.973 192.217ZM224.571 190.952C224.139 191.006 223.719 190.743 223.597 190.32C223.464 189.854 223.74 189.371 224.215 189.238C224.982 189.026 225.747 188.813 226.512 188.601C226.987 188.468 227.481 188.741 227.617 189.204C227.752 189.67 227.477 190.153 227.001 190.286C226.236 190.498 225.469 190.711 224.702 190.923C224.658 190.936 224.615 190.945 224.571 190.952ZM229.165 189.674C228.733 189.728 228.315 189.467 228.191 189.044C228.055 188.579 228.331 188.095 228.807 187.96C229.574 187.746 230.339 187.532 231.101 187.316C231.574 187.184 232.073 187.451 232.208 187.917C232.344 188.383 232.07 188.869 231.595 189.002C230.83 189.215 230.065 189.431 229.298 189.645C229.254 189.661 229.211 189.67 229.165 189.674ZM104.447 205.308C104.436 205.311 104.424 205.31 104.415 205.313C103.924 205.355 103.487 205.002 103.444 204.519C103.363 203.657 103.423 202.793 103.623 201.945C103.733 201.472 104.213 201.178 104.695 201.288C105.178 201.396 105.479 201.866 105.366 202.338C105.21 203.004 105.162 203.684 105.224 204.359C105.267 204.831 104.921 205.25 104.447 205.308ZM233.756 188.385C233.327 188.439 232.909 188.18 232.785 187.757C232.647 187.292 232.923 186.806 233.398 186.673C234.165 186.457 234.93 186.241 235.69 186.025C236.168 185.89 236.662 186.158 236.8 186.624C236.938 187.089 236.664 187.575 236.189 187.71C235.426 187.926 234.661 188.142 233.894 188.358C233.846 188.372 233.802 188.378 233.756 188.385ZM238.346 187.085C237.916 187.139 237.498 186.88 237.374 186.459C237.236 185.994 237.51 185.508 237.983 185.373C238.75 185.154 239.515 184.936 240.275 184.718C240.75 184.583 241.247 184.848 241.384 185.314C241.522 185.78 241.251 186.266 240.776 186.401C240.013 186.619 239.248 186.837 238.481 187.055C238.437 187.069 238.392 187.08 238.346 187.085ZM242.93 185.773C242.501 185.827 242.085 185.568 241.959 185.15C241.821 184.684 242.092 184.198 242.565 184.063C243.332 183.843 244.095 183.622 244.855 183.404C245.33 183.267 245.827 183.532 245.967 183.998C246.107 184.464 245.836 184.95 245.36 185.087C244.6 185.307 243.835 185.526 243.068 185.746C243.022 185.76 242.976 185.769 242.93 185.773ZM247.513 184.452C247.085 184.506 246.667 184.25 246.541 183.831C246.401 183.368 246.672 182.88 247.145 182.743C247.912 182.52 248.675 182.299 249.435 182.079C249.908 181.942 250.407 182.205 250.547 182.671C250.687 183.134 250.418 183.622 249.943 183.76C249.182 183.98 248.42 184.203 247.653 184.425C247.607 184.437 247.558 184.446 247.513 184.452ZM252.09 183.121C251.663 183.175 251.247 182.918 251.121 182.502C250.981 182.038 251.25 181.55 251.723 181.411C252.49 181.186 253.253 180.963 254.01 180.74C254.484 180.601 254.982 180.864 255.124 181.33C255.267 181.793 254.998 182.281 254.523 182.421C253.765 182.644 253.002 182.866 252.233 183.091C252.187 183.105 252.139 183.114 252.09 183.121ZM105.456 200.86C105.274 200.883 105.086 200.851 104.914 200.759C104.48 200.527 104.321 199.994 104.558 199.569C104.944 198.878 105.431 198.188 106.007 197.515C106.324 197.144 106.889 197.096 107.268 197.407C107.647 197.717 107.695 198.271 107.378 198.642C106.878 199.227 106.457 199.821 106.129 200.408C105.986 200.667 105.731 200.827 105.456 200.86ZM256.668 181.78C256.241 181.834 255.825 181.579 255.699 181.163C255.556 180.7 255.825 180.212 256.298 180.072C257.065 179.847 257.828 179.622 258.584 179.397C259.057 179.258 259.555 179.519 259.7 179.982C259.842 180.446 259.574 180.936 259.1 181.075C258.342 181.298 257.58 181.523 256.813 181.75C256.764 181.762 256.716 181.773 256.668 181.78ZM261.241 180.428C260.816 180.482 260.4 180.227 260.272 179.811C260.129 179.348 260.396 178.859 260.869 178.718C261.639 178.49 262.399 178.263 263.154 178.038C263.628 177.899 264.126 178.16 264.271 178.623C264.415 179.087 264.147 179.575 263.676 179.717C262.92 179.942 262.158 180.169 261.388 180.396C261.338 180.412 261.289 180.421 261.241 180.428ZM265.812 179.066C265.387 179.12 264.974 178.866 264.843 178.452C264.698 177.989 264.964 177.501 265.438 177.359C266.207 177.129 266.967 176.902 267.721 176.675C268.192 176.533 268.695 176.794 268.839 177.255C268.984 177.719 268.718 178.209 268.247 178.351C267.493 178.578 266.731 178.805 265.961 179.035C265.911 179.051 265.86 179.06 265.812 179.066ZM270.381 177.696C269.956 177.75 269.542 177.498 269.414 177.084C269.269 176.621 269.533 176.13 270.006 175.989C270.776 175.757 271.538 175.527 272.289 175.3C272.762 175.158 273.263 175.417 273.408 175.878C273.553 176.342 273.288 176.832 272.815 176.974C272.064 177.201 271.302 177.431 270.532 177.663C270.479 177.68 270.429 177.689 270.381 177.696ZM108.469 197.279C108.189 197.315 107.895 197.218 107.691 196.995C107.36 196.635 107.39 196.082 107.757 195.758C108.336 195.247 108.984 194.732 109.68 194.23C110.077 193.942 110.638 194.025 110.932 194.417C111.226 194.806 111.141 195.355 110.741 195.643C110.093 196.111 109.491 196.588 108.956 197.06C108.814 197.184 108.644 197.256 108.469 197.279ZM274.945 176.317C274.522 176.371 274.108 176.119 273.978 175.707C273.831 175.246 274.097 174.753 274.568 174.612C275.34 174.378 276.1 174.146 276.849 173.919C277.32 173.777 277.823 174.034 277.97 174.495C278.117 174.958 277.852 175.449 277.379 175.593C276.63 175.82 275.868 176.052 275.096 176.286C275.048 176.299 274.997 176.31 274.945 176.317ZM279.508 174.929C279.086 174.983 278.672 174.733 278.541 174.319C278.394 173.858 278.659 173.365 279.129 173.221C279.904 172.985 280.664 172.753 281.41 172.524C281.883 172.38 282.384 172.636 282.531 173.098C282.678 173.559 282.416 174.052 281.943 174.196C281.197 174.425 280.436 174.657 279.662 174.893C279.612 174.911 279.561 174.922 279.508 174.929ZM284.07 173.532C283.647 173.586 283.236 173.336 283.103 172.924C282.954 172.463 283.218 171.97 283.689 171.826C284.467 171.588 285.228 171.354 285.967 171.125C286.438 170.978 286.941 171.235 287.091 171.698C287.24 172.159 286.978 172.652 286.505 172.798C285.763 173.028 285.003 173.262 284.224 173.5C284.173 173.514 284.123 173.525 284.07 173.532ZM112.298 194.493C111.963 194.536 111.618 194.39 111.428 194.091C111.164 193.681 111.29 193.139 111.708 192.883C112.367 192.478 113.075 192.068 113.812 191.67C114.244 191.436 114.788 191.589 115.029 192.014C115.268 192.437 115.112 192.97 114.678 193.204C113.97 193.587 113.293 193.978 112.661 194.365C112.546 194.435 112.422 194.478 112.298 194.493ZM288.629 172.123C288.209 172.175 287.796 171.928 287.665 171.518C287.515 171.057 287.777 170.564 288.248 170.418C289.034 170.175 289.792 169.939 290.527 169.712C290.998 169.565 291.501 169.82 291.65 170.281C291.799 170.742 291.54 171.235 291.069 171.381C290.334 171.61 289.574 171.847 288.788 172.09C288.735 172.105 288.682 172.117 288.629 172.123ZM293.189 170.706C292.768 170.758 292.357 170.513 292.224 170.103C292.075 169.642 292.334 169.149 292.805 169.001C293.602 168.751 294.363 168.515 295.084 168.288C295.555 168.139 296.058 168.393 296.209 168.854C296.361 169.316 296.101 169.808 295.63 169.957C294.909 170.184 294.149 170.42 293.35 170.67C293.294 170.688 293.242 170.699 293.189 170.706ZM116.476 192.221C116.109 192.268 115.734 192.084 115.56 191.74C115.342 191.305 115.523 190.779 115.964 190.565C116.662 190.225 117.4 189.886 118.158 189.553C118.608 189.355 119.138 189.551 119.341 189.991C119.543 190.432 119.343 190.952 118.893 191.15C118.155 191.474 117.439 191.807 116.759 192.136C116.669 192.181 116.573 192.21 116.476 192.221ZM297.748 169.275C297.328 169.327 296.917 169.082 296.783 168.674C296.632 168.213 296.891 167.721 297.362 167.572C298.194 167.311 298.954 167.07 299.641 166.852C300.112 166.704 300.615 166.956 300.769 167.417C300.92 167.878 300.663 168.371 300.192 168.521C299.505 168.74 298.743 168.98 297.909 169.241C297.856 169.257 297.801 169.268 297.748 169.275ZM302.312 167.831C301.894 167.883 301.483 167.64 301.347 167.232C301.194 166.771 301.451 166.276 301.922 166.128C303.33 165.68 304.081 165.437 304.081 165.437C304.549 165.286 305.057 165.536 305.211 165.995C305.365 166.454 305.11 166.951 304.641 167.102C304.641 167.102 303.888 167.345 302.475 167.795C302.422 167.813 302.367 167.824 302.312 167.831ZM120.836 190.295C120.445 190.345 120.053 190.133 119.896 189.76C119.708 189.312 119.926 188.799 120.381 188.615C121.102 188.322 121.858 188.03 122.625 187.742C123.087 187.568 123.604 187.796 123.78 188.248C123.957 188.7 123.725 189.206 123.264 189.38C122.51 189.661 121.771 189.949 121.063 190.237C120.99 190.266 120.912 190.286 120.836 190.295ZM125.301 188.619C124.892 188.671 124.49 188.439 124.346 188.043C124.18 187.586 124.421 187.087 124.888 186.923C125.627 186.664 126.392 186.405 127.166 186.153C127.637 185.998 128.142 186.248 128.299 186.707C128.455 187.166 128.202 187.663 127.733 187.816C126.971 188.066 126.215 188.32 125.489 188.574C125.427 188.597 125.363 188.61 125.301 188.619ZM129.84 187.134C129.417 187.186 129.006 186.938 128.873 186.527C128.726 186.066 128.988 185.573 129.458 185.429C130.207 185.199 130.981 184.968 131.762 184.743C132.235 184.605 132.734 184.871 132.874 185.334C133.014 185.798 132.743 186.286 132.27 186.423C131.5 186.646 130.736 186.875 129.996 187.103C129.943 187.116 129.89 187.127 129.84 187.134ZM134.427 185.805C133.993 185.859 133.572 185.595 133.453 185.17C133.32 184.704 133.597 184.221 134.073 184.09C134.836 183.881 135.616 183.674 136.395 183.472C136.873 183.348 137.362 183.627 137.488 184.095C137.615 184.563 137.33 185.042 136.852 185.166C136.083 185.366 135.311 185.571 134.555 185.778C134.512 185.791 134.468 185.8 134.427 185.805ZM139.055 184.605C138.612 184.662 138.184 184.385 138.074 183.948C137.955 183.478 138.246 183.004 138.724 182.884C139.491 182.695 140.279 182.509 141.06 182.326C141.542 182.216 142.023 182.506 142.137 182.977C142.252 183.447 141.954 183.919 141.474 184.032C140.7 184.212 139.919 184.398 139.158 184.583C139.124 184.594 139.089 184.601 139.055 184.605ZM143.713 183.523C143.261 183.58 142.829 183.292 142.728 182.846C142.62 182.374 142.923 181.906 143.405 181.8C144.189 181.627 144.981 181.46 145.757 181.298C146.242 181.197 146.715 181.501 146.818 181.975C146.92 182.45 146.612 182.914 146.127 183.015C145.358 183.175 144.574 183.341 143.796 183.512C143.77 183.517 143.741 183.521 143.713 183.523ZM148.406 182.556C147.942 182.614 147.505 182.311 147.416 181.856C147.321 181.381 147.636 180.92 148.121 180.828C149.616 180.54 150.477 180.396 150.512 180.389C150.992 180.306 151.461 180.628 151.546 181.107C151.628 181.584 151.302 182.036 150.815 182.119C150.806 182.122 149.938 182.266 148.468 182.549C148.445 182.551 148.426 182.554 148.406 182.556Z" fill="white" fill-opacity="0.5"/>
<path d="M288.383 192.775L330.906 161.778L289.394 169.394L293.525 175.867L286.112 186.256L288.383 192.775Z" fill="#B7EE81"/>
<path d="M288.383 192.775L330.906 161.778L289.394 169.394L293.525 175.867L286.112 186.256L288.383 192.775Z" fill="black" fill-opacity="0.2"/>
<path d="M330.906 161.778L283.985 176.331L252.101 204.341L330.906 161.778Z" fill="#B7EE81"/>
<path d="M330.906 161.778L283.985 176.331L252.101 204.341L330.906 161.778Z" fill="white" fill-opacity="0.5"/>
<path d="M289.394 169.395L330.906 161.779L285.51 154.754L289.394 169.395Z" fill="#B7EE81"/>
<path d="M289.394 169.395L330.906 161.779L285.51 154.754L289.394 169.395Z" fill="white" fill-opacity="0.5"/>
<path d="M290.247 29.5812L323.461 28.4549L299.199 17.8443L299.008 22.6399L291.42 25.4146L290.247 29.5812Z" fill="#B7EE81"/>
<path d="M290.247 29.5812L323.461 28.4549L299.199 17.8443L299.008 22.6399L291.42 25.4146L290.247 29.5812Z" fill="black" fill-opacity="0.2"/>
<path d="M323.461 28.5208L293.875 19.5908L267.239 22.9072L323.461 28.5208Z" fill="#B7EE81"/>
<path d="M323.461 28.5208L293.875 19.5908L267.239 22.9072L323.461 28.5208Z" fill="white" fill-opacity="0.5"/>
<path d="M299.279 17.8533L323.461 28.4243L302.531 8.95308L299.279 17.8533Z" fill="#B7EE81"/>
<path d="M299.279 17.8533L323.461 28.4243L302.531 8.95308L299.279 17.8533Z" fill="white" fill-opacity="0.5"/>
<defs>
<filter id="filter0_ddddd_552_291" x="492.441" y="-6.67432" width="252.694" height="203.111" filterUnits="userSpaceOnUse" color-interpolation-filters="sRGB">
<feFlood flood-opacity="0" result="BackgroundImageFix"/>
<feColorMatrix in="SourceAlpha" type="matrix" values="0 0 0 0 0 0 0 0 0 0 0 0 0 0 0 0 0 0 127 0" result="hardAlpha"/>
<feOffset dy="6"/>
<feGaussianBlur stdDeviation="4"/>
<feColorMatrix type="matrix" values="0 0 0 0 0.705882 0 0 0 0 0.831373 0 0 0 0 0.921569 0 0 0 0.12 0"/>
<feBlend mode="normal" in2="BackgroundImageFix" result="effect1_dropShadow_552_291"/>
<feColorMatrix in="SourceAlpha" type="matrix" values="0 0 0 0 0 0 0 0 0 0 0 0 0 0 0 0 0 0 127 0" result="hardAlpha"/>
<feOffset dy="8"/>
<feGaussianBlur stdDeviation="12"/>
<feColorMatrix type="matrix" values="0 0 0 0 0.705882 0 0 0 0 0.831373 0 0 0 0 0.921569 0 0 0 0.08 0"/>
<feBlend mode="normal" in2="effect1_dropShadow_552_291" result="effect2_dropShadow_552_291"/>
<feColorMatrix in="SourceAlpha" type="matrix" values="0 0 0 0 0 0 0 0 0 0 0 0 0 0 0 0 0 0 127 0" result="hardAlpha"/>
<feOffset dy="16"/>
<feGaussianBlur stdDeviation="18"/>
<feColorMatrix type="matrix" values="0 0 0 0 0.705882 0 0 0 0 0.831373 0 0 0 0 0.921569 0 0 0 0.04 0"/>
<feBlend mode="normal" in2="effect2_dropShadow_552_291" result="effect3_dropShadow_552_291"/>
<feColorMatrix in="SourceAlpha" type="matrix" values="0 0 0 0 0 0 0 0 0 0 0 0 0 0 0 0 0 0 127 0" result="hardAlpha"/>
<feOffset dy="40"/>
<feGaussianBlur stdDeviation="35"/>
<feColorMatrix type="matrix" values="0 0 0 0 0.705882 0 0 0 0 0.831373 0 0 0 0 0.921569 0 0 0 0.04 0"/>
<feBlend mode="normal" in2="effect3_dropShadow_552_291" result="effect4_dropShadow_552_291"/>
<feColorMatrix in="SourceAlpha" type="matrix" values="0 0 0 0 0 0 0 0 0 0 0 0 0 0 0 0 0 0 127 0" result="hardAlpha"/>
<feOffset dy="2"/>
<feGaussianBlur stdDeviation="2"/>
<feColorMatrix type="matrix" values="0 0 0 0 0.87451 0 0 0 0 0.929412 0 0 0 0 0.964706 0 0 0 0.4 0"/>
<feBlend mode="normal" in2="effect4_dropShadow_552_291" result="effect5_dropShadow_552_291"/>
<feBlend mode="normal" in="SourceGraphic" in2="effect5_dropShadow_552_291" result="shape"/>
</filter>
<filter id="filter1_ddddd_552_291" x="508.07" y="47.2568" width="154.77" height="157.834" filterUnits="userSpaceOnUse" color-interpolation-filters="sRGB">
<feFlood flood-opacity="0" result="BackgroundImageFix"/>
<feColorMatrix in="SourceAlpha" type="matrix" values="0 0 0 0 0 0 0 0 0 0 0 0 0 0 0 0 0 0 127 0" result="hardAlpha"/>
<feOffset dy="6"/>
<feGaussianBlur stdDeviation="4"/>
<feColorMatrix type="matrix" values="0 0 0 0 0.705882 0 0 0 0 0.831373 0 0 0 0 0.921569 0 0 0 0.12 0"/>
<feBlend mode="normal" in2="BackgroundImageFix" result="effect1_dropShadow_552_291"/>
<feColorMatrix in="SourceAlpha" type="matrix" values="0 0 0 0 0 0 0 0 0 0 0 0 0 0 0 0 0 0 127 0" result="hardAlpha"/>
<feOffset dy="8"/>
<feGaussianBlur stdDeviation="12"/>
<feColorMatrix type="matrix" values="0 0 0 0 0.705882 0 0 0 0 0.831373 0 0 0 0 0.921569 0 0 0 0.08 0"/>
<feBlend mode="normal" in2="effect1_dropShadow_552_291" result="effect2_dropShadow_552_291"/>
<feColorMatrix in="SourceAlpha" type="matrix" values="0 0 0 0 0 0 0 0 0 0 0 0 0 0 0 0 0 0 127 0" result="hardAlpha"/>
<feOffset dy="16"/>
<feGaussianBlur stdDeviation="18"/>
<feColorMatrix type="matrix" values="0 0 0 0 0.705882 0 0 0 0 0.831373 0 0 0 0 0.921569 0 0 0 0.04 0"/>
<feBlend mode="normal" in2="effect2_dropShadow_552_291" result="effect3_dropShadow_552_291"/>
<feColorMatrix in="SourceAlpha" type="matrix" values="0 0 0 0 0 0 0 0 0 0 0 0 0 0 0 0 0 0 127 0" result="hardAlpha"/>
<feOffset dy="40"/>
<feGaussianBlur stdDeviation="35"/>
<feColorMatrix type="matrix" values="0 0 0 0 0.705882 0 0 0 0 0.831373 0 0 0 0 0.921569 0 0 0 0.04 0"/>
<feBlend mode="normal" in2="effect3_dropShadow_552_291" result="effect4_dropShadow_552_291"/>
<feColorMatrix in="SourceAlpha" type="matrix" values="0 0 0 0 0 0 0 0 0 0 0 0 0 0 0 0 0 0 127 0" result="hardAlpha"/>
<feOffset dy="2"/>
<feGaussianBlur stdDeviation="2"/>
<feColorMatrix type="matrix" values="0 0 0 0 0.87451 0 0 0 0 0.929412 0 0 0 0 0.964706 0 0 0 0.4 0"/>
<feBlend mode="normal" in2="effect4_dropShadow_552_291" result="effect5_dropShadow_552_291"/>
<feBlend mode="normal" in="SourceGraphic" in2="effect5_dropShadow_552_291" result="shape"/>
</filter>
<clipPath id="clip0_552_291">
<rect width="144.176" height="140.246" fill="white" transform="translate(555.824 4.83594)"/>
</clipPath>
</defs>
</svg>
