
<svg width="1440" height="693" viewBox="0 0 1440 693" fill="none" xmlns="http://www.w3.org/2000/svg">
<g opacity="0.4">
<path d="M356.5 564.075C495 629.233 593.5 650.003 840 650.003L317.5 742.319L-15 611.272C63 515.242 181 481.51 356.5 564.075Z" fill="#B7EE81"/>
<path d="M356.5 564.075C495 629.233 593.5 650.003 840 650.003L317.5 742.319L-15 611.272C63 515.242 181 481.51 356.5 564.075Z" fill="white" fill-opacity="0.85"/>
</g>
<path d="M1445 354.506C1453 288.717 1485 163.506 1512.5 158.731L1460 762.503H-20V500.939C63.6667 560.184 293.823 669.656 520.5 669.656C718.5 669.656 791.5 640.137 855.5 612.356C958.5 567.644 993.5 546.784 1146 612.356C1332.5 692.546 1419.57 563.6 1445 354.506Z" fill="#B7EE81"/>
<path d="M1445 354.506C1453 288.717 1485 163.506 1512.5 158.731L1460 762.503H-20V500.939C63.6667 560.184 293.823 669.656 520.5 669.656C718.5 669.656 791.5 640.137 855.5 612.356C958.5 567.644 993.5 546.784 1146 612.356C1332.5 692.546 1419.57 563.6 1445 354.506Z" fill="white" fill-opacity="0.65"/>
<g opacity="0.6" clip-path="url(#clip0_372_1532)">
<path fill-rule="evenodd" clip-rule="evenodd" d="M60.3957 144.096L46.3459 60.3525C44.4688 60.458 42.5616 59.749 41.1957 58.2518C38.7856 55.6102 38.9734 51.515 41.6151 49.105C44.2567 46.6949 48.3519 46.8827 50.7619 49.5243C52.3829 51.3011 52.8287 53.7354 52.143 55.8723L131.15 91.08C131.498 90.3645 131.985 89.7016 132.609 89.1327C135.251 86.7227 139.346 86.9104 141.756 89.5521C144.166 92.1937 143.978 96.2889 141.336 98.699C138.791 101.021 134.896 100.931 132.459 98.5581L67.6563 146.949C69.2514 149.544 68.8327 152.988 66.4992 155.117C63.8576 157.527 59.7624 157.339 57.3524 154.697C54.9423 152.056 55.1301 147.961 57.7718 145.551C58.5475 144.843 59.4487 144.359 60.3957 144.096ZM50.3425 58.6712C50.5319 58.4985 50.7086 58.3171 50.8726 58.1282L90.3516 86.3831C89.0416 88.7469 89.3112 91.7786 91.2335 93.8855C91.652 94.3443 92.1214 94.7291 92.6252 95.0391L64.7075 144.39C63.7389 143.972 62.6861 143.799 61.6463 143.877L47.6005 60.1576C48.5906 59.9024 49.5346 59.4083 50.3425 58.6712ZM93.7691 95.5952L65.8175 145.006C66.2002 145.271 66.5599 145.582 66.8888 145.938L131.638 97.5866C130.951 96.59 130.576 95.4492 130.509 94.2966L102.282 91.1571C101.977 92.3286 101.341 93.4283 100.38 94.3049C98.5302 95.9929 95.967 96.4065 93.7691 95.5952ZM102.48 89.9017L130.56 93.0248C130.595 92.772 130.644 92.5211 130.709 92.2733L51.638 57.0371C51.6277 57.0556 51.6173 57.0741 51.6068 57.0925L91.0737 85.3388C91.2515 85.1293 91.4445 84.9287 91.6529 84.7387C94.2945 82.3286 98.3897 82.5164 100.8 85.158C102.025 86.5011 102.579 88.2198 102.48 89.9017Z" fill="#B7EE81"/>
<path fill-rule="evenodd" clip-rule="evenodd" d="M60.3957 144.096L46.3459 60.3525C44.4688 60.458 42.5616 59.749 41.1957 58.2518C38.7856 55.6102 38.9734 51.515 41.6151 49.105C44.2567 46.6949 48.3519 46.8827 50.7619 49.5243C52.3829 51.3011 52.8287 53.7354 52.143 55.8723L131.15 91.08C131.498 90.3645 131.985 89.7016 132.609 89.1327C135.251 86.7227 139.346 86.9104 141.756 89.5521C144.166 92.1937 143.978 96.2889 141.336 98.699C138.791 101.021 134.896 100.931 132.459 98.5581L67.6563 146.949C69.2514 149.544 68.8327 152.988 66.4992 155.117C63.8576 157.527 59.7624 157.339 57.3524 154.697C54.9423 152.056 55.1301 147.961 57.7718 145.551C58.5475 144.843 59.4487 144.359 60.3957 144.096ZM50.3425 58.6712C50.5319 58.4985 50.7086 58.3171 50.8726 58.1282L90.3516 86.3831C89.0416 88.7469 89.3112 91.7786 91.2335 93.8855C91.652 94.3443 92.1214 94.7291 92.6252 95.0391L64.7075 144.39C63.7389 143.972 62.6861 143.799 61.6463 143.877L47.6005 60.1576C48.5906 59.9024 49.5346 59.4083 50.3425 58.6712ZM93.7691 95.5952L65.8175 145.006C66.2002 145.271 66.5599 145.582 66.8888 145.938L131.638 97.5866C130.951 96.59 130.576 95.4492 130.509 94.2966L102.282 91.1571C101.977 92.3286 101.341 93.4283 100.38 94.3049C98.5302 95.9929 95.967 96.4065 93.7691 95.5952ZM102.48 89.9017L130.56 93.0248C130.595 92.772 130.644 92.5211 130.709 92.2733L51.638 57.0371C51.6277 57.0556 51.6173 57.0741 51.6068 57.0925L91.0737 85.3388C91.2515 85.1293 91.4445 84.9287 91.6529 84.7387C94.2945 82.3286 98.3897 82.5164 100.8 85.158C102.025 86.5011 102.579 88.2198 102.48 89.9017Z" fill="white" fill-opacity="0.65"/>
</g>
<g opacity="0.8">
<path fill-rule="evenodd" clip-rule="evenodd" d="M590.676 364.571L622.939 389.47C623.565 388.82 624.468 388.448 625.437 388.529C627.147 388.673 628.417 390.176 628.273 391.886C628.129 393.596 626.627 394.866 624.916 394.722C623.766 394.626 622.815 393.914 622.359 392.938L583.061 406.315C583.171 406.68 583.216 407.073 583.182 407.476C583.038 409.186 581.535 410.456 579.825 410.312C578.115 410.168 576.845 408.665 576.989 406.955C577.128 405.307 578.529 404.068 580.16 404.109L587.189 365.935C585.781 365.542 584.805 364.193 584.932 362.682C585.076 360.972 586.579 359.702 588.289 359.846C589.999 359.99 591.269 361.493 591.125 363.203C591.083 363.705 590.924 364.169 590.676 364.571ZM622.08 391.365C622.07 391.488 622.067 391.609 622.071 391.729L598.956 394.66C598.646 393.401 597.562 392.421 596.198 392.307C595.901 392.282 595.61 392.299 595.332 392.354L589.062 365.874C589.54 365.705 589.966 365.422 590.307 365.056L622.561 389.948C622.295 390.36 622.124 390.842 622.08 391.365ZM594.748 392.532L588.47 366.019C588.249 366.051 588.021 366.059 587.789 366.041L580.766 404.183C581.333 404.31 581.837 404.59 582.237 404.973L593.198 396.871C592.923 396.359 592.789 395.765 592.841 395.143C592.942 393.945 593.709 392.963 594.748 392.532ZM593.538 397.378L582.634 405.438C582.704 405.538 582.769 405.643 582.827 405.751L622.157 392.363C622.155 392.353 622.153 392.343 622.15 392.334L599.042 395.263C599.048 395.395 599.045 395.529 599.034 395.664C598.89 397.374 597.387 398.643 595.677 398.5C594.808 398.426 594.052 398.002 593.538 397.378Z" fill="#B7EE81"/>
<path fill-rule="evenodd" clip-rule="evenodd" d="M590.676 364.571L622.939 389.47C623.565 388.82 624.468 388.448 625.437 388.529C627.147 388.673 628.417 390.176 628.273 391.886C628.129 393.596 626.627 394.866 624.916 394.722C623.766 394.626 622.815 393.914 622.359 392.938L583.061 406.315C583.171 406.68 583.216 407.073 583.182 407.476C583.038 409.186 581.535 410.456 579.825 410.312C578.115 410.168 576.845 408.665 576.989 406.955C577.128 405.307 578.529 404.068 580.16 404.109L587.189 365.935C585.781 365.542 584.805 364.193 584.932 362.682C585.076 360.972 586.579 359.702 588.289 359.846C589.999 359.99 591.269 361.493 591.125 363.203C591.083 363.705 590.924 364.169 590.676 364.571ZM622.08 391.365C622.07 391.488 622.067 391.609 622.071 391.729L598.956 394.66C598.646 393.401 597.562 392.421 596.198 392.307C595.901 392.282 595.61 392.299 595.332 392.354L589.062 365.874C589.54 365.705 589.966 365.422 590.307 365.056L622.561 389.948C622.295 390.36 622.124 390.842 622.08 391.365ZM594.748 392.532L588.47 366.019C588.249 366.051 588.021 366.059 587.789 366.041L580.766 404.183C581.333 404.31 581.837 404.59 582.237 404.973L593.198 396.871C592.923 396.359 592.789 395.765 592.841 395.143C592.942 393.945 593.709 392.963 594.748 392.532ZM593.538 397.378L582.634 405.438C582.704 405.538 582.769 405.643 582.827 405.751L622.157 392.363C622.155 392.353 622.153 392.343 622.15 392.334L599.042 395.263C599.048 395.395 599.045 395.529 599.034 395.664C598.89 397.374 597.387 398.643 595.677 398.5C594.808 398.426 594.052 398.002 593.538 397.378Z" fill="white" fill-opacity="0.65"/>
</g>
<defs>
<clipPath id="clip0_372_1532">
<rect width="130" height="130" fill="white" transform="translate(-20 87.6172) rotate(-42.3748)"/>
</clipPath>
</defs>
</svg>
