<svg width="105" height="110" viewBox="0 0 105 110" fill="none" xmlns="http://www.w3.org/2000/svg">
<path fill-rule="evenodd" clip-rule="evenodd" d="M21.3957 97.0958L7.34595 13.3525C5.46882 13.458 3.56159 12.749 2.19566 11.2518C-0.214363 8.61017 -0.026596 4.51498 2.61505 2.10495C5.2567 -0.305073 9.3519 -0.117308 11.7619 2.52434C13.3829 4.3011 13.8287 6.73542 13.143 8.87229L92.1503 44.08C92.4985 43.3645 92.9854 42.7016 93.609 42.1327C96.2506 39.7227 100.346 39.9104 102.756 42.5521C105.166 45.1937 104.978 49.2889 102.336 51.699C99.7909 54.0213 95.8956 53.9314 93.4591 51.5581L28.6563 99.9489C30.2514 102.544 29.8327 105.988 27.4992 108.117C24.8576 110.527 20.7624 110.339 18.3524 107.697C15.9423 105.056 16.1301 100.961 18.7718 98.5506C19.5475 97.8429 20.4487 97.3591 21.3957 97.0958ZM11.3425 11.6712C11.5319 11.4985 11.7086 11.3171 11.8726 11.1282L51.3516 39.3831C50.0416 41.7469 50.3112 44.7786 52.2335 46.8855C52.652 47.3443 53.1214 47.7291 53.6252 48.0391L25.7075 97.3902C24.7389 96.9717 23.6861 96.7993 22.6463 96.8774L8.60054 13.1576C9.59064 12.9024 10.5346 12.4083 11.3425 11.6712ZM54.7691 48.5952L26.8175 98.0063C27.2002 98.2713 27.5599 98.5818 27.8888 98.9376L92.6383 50.5866C91.9507 49.59 91.5763 48.4492 91.5091 47.2966L63.2821 44.1571C62.9775 45.3286 62.3413 46.4283 61.3804 47.3049C59.5302 48.9929 56.967 49.4065 54.7691 48.5952ZM63.4801 42.9017L91.5596 46.0248C91.5945 45.772 91.6444 45.5211 91.7091 45.2733L12.638 10.0371C12.6277 10.0556 12.6173 10.0741 12.6068 10.0925L52.0737 38.3388C52.2515 38.1293 52.4445 37.9287 52.6529 37.7387C55.2945 35.3286 59.3897 35.5164 61.7997 38.158C63.025 39.5011 63.5788 41.2198 63.4801 42.9017Z" fill="#B7EE81"/>
<path fill-rule="evenodd" clip-rule="evenodd" d="M21.3957 97.0958L7.34595 13.3525C5.46882 13.458 3.56159 12.749 2.19566 11.2518C-0.214363 8.61017 -0.026596 4.51498 2.61505 2.10495C5.2567 -0.305073 9.3519 -0.117308 11.7619 2.52434C13.3829 4.3011 13.8287 6.73542 13.143 8.87229L92.1503 44.08C92.4985 43.3645 92.9854 42.7016 93.609 42.1327C96.2506 39.7227 100.346 39.9104 102.756 42.5521C105.166 45.1937 104.978 49.2889 102.336 51.699C99.7909 54.0213 95.8956 53.9314 93.4591 51.5581L28.6563 99.9489C30.2514 102.544 29.8327 105.988 27.4992 108.117C24.8576 110.527 20.7624 110.339 18.3524 107.697C15.9423 105.056 16.1301 100.961 18.7718 98.5506C19.5475 97.8429 20.4487 97.3591 21.3957 97.0958ZM11.3425 11.6712C11.5319 11.4985 11.7086 11.3171 11.8726 11.1282L51.3516 39.3831C50.0416 41.7469 50.3112 44.7786 52.2335 46.8855C52.652 47.3443 53.1214 47.7291 53.6252 48.0391L25.7075 97.3902C24.7389 96.9717 23.6861 96.7993 22.6463 96.8774L8.60054 13.1576C9.59064 12.9024 10.5346 12.4083 11.3425 11.6712ZM54.7691 48.5952L26.8175 98.0063C27.2002 98.2713 27.5599 98.5818 27.8888 98.9376L92.6383 50.5866C91.9507 49.59 91.5763 48.4492 91.5091 47.2966L63.2821 44.1571C62.9775 45.3286 62.3413 46.4283 61.3804 47.3049C59.5302 48.9929 56.967 49.4065 54.7691 48.5952ZM63.4801 42.9017L91.5596 46.0248C91.5945 45.772 91.6444 45.5211 91.7091 45.2733L12.638 10.0371C12.6277 10.0556 12.6173 10.0741 12.6068 10.0925L52.0737 38.3388C52.2515 38.1293 52.4445 37.9287 52.6529 37.7387C55.2945 35.3286 59.3897 35.5164 61.7997 38.158C63.025 39.5011 63.5788 41.2198 63.4801 42.9017Z" fill="white" fill-opacity="0.65"/>
</svg>
