<svg width="258" height="216" viewBox="0 0 258 216" fill="none" xmlns="http://www.w3.org/2000/svg">
<g filter="url(#filter0_ddddd_450_525)">
<g clip-path="url(#clip0_450_525)">
<rect x="28" y="28" width="160" height="160" rx="16" fill="white"/>
<g opacity="0.6" clip-path="url(#clip1_450_525)">
<g opacity="0.6">
<path fill-rule="evenodd" clip-rule="evenodd" d="M47.7881 149.749C47.9273 150.269 47.9804 150.792 47.9559 151.302L62.7631 151.835C62.8655 150.175 64.0101 148.692 65.705 148.238C67.8271 147.669 70.0084 148.929 70.577 151.051C71.0993 153 70.0797 154.999 68.266 155.752L73.4267 175.261C75.9879 174.798 78.5184 176.37 79.2041 178.93C79.927 181.627 78.3261 184.4 75.6285 185.123C73.8156 185.609 71.9688 185.045 70.733 183.804L60.0219 191.225C60.2003 191.56 60.3436 191.919 60.4459 192.301C61.1688 194.999 59.5679 197.772 56.8703 198.494C54.1726 199.217 51.3998 197.616 50.677 194.919C50.5712 194.524 50.5152 194.128 50.5051 193.737L36.4568 193.228C36.4348 195.441 34.9502 197.458 32.7079 198.059C30.0102 198.782 27.2374 197.181 26.5146 194.484C25.7917 191.786 27.3926 189.013 30.0902 188.29L24.6665 168.049C24.6464 168.054 24.6262 168.06 24.606 168.065C22.358 168.668 20.0473 167.334 19.4449 165.086C18.8426 162.838 20.1766 160.527 22.4246 159.925C24.3061 159.42 26.2315 160.273 27.1625 161.882L38.8214 154.045C38.4622 153.554 38.186 152.99 38.0191 152.367C37.2963 149.669 38.8971 146.896 41.5948 146.173C44.2924 145.451 47.0652 147.052 47.7881 149.749ZM47.8789 151.969L62.7703 152.419C62.7902 152.648 62.8304 152.88 62.8921 153.11C63.0279 153.617 63.2556 154.074 63.5525 154.469L50.7003 163.015C49.8399 162.03 48.4643 161.562 47.1155 161.923C45.6766 162.309 44.6835 163.527 44.5161 164.921L27.7131 164.377C27.7569 163.895 27.7181 163.398 27.5857 162.904C27.5483 162.765 27.5044 162.629 27.4543 162.497L39.2684 154.575C40.5041 155.85 42.3756 156.435 44.2124 155.943C46.1609 155.42 47.5372 153.829 47.8789 151.969ZM44.5013 165.61L27.5917 165.066C27.2803 166.247 26.4621 167.265 25.319 167.804L30.7723 188.156C33.2405 187.845 35.6216 189.396 36.2835 191.866C36.343 192.088 36.3868 192.311 36.4155 192.533L50.5351 193.044C50.7528 191.116 52.0761 189.416 54.0146 188.795L48.6912 168.82C46.8867 169.164 45.0955 168.061 44.6125 166.258C44.5545 166.042 44.5179 165.825 44.5013 165.61ZM49.3198 168.639L54.6447 188.637C56.5473 188.284 58.4362 189.055 59.5676 190.522L70.2515 183.244C69.8854 182.749 69.6042 182.178 69.4352 181.547C68.7356 178.936 70.2125 176.255 72.7536 175.43L67.6037 155.963C66.2806 156.26 64.9508 155.857 64.0185 154.988L51.0915 163.561C51.2456 163.826 51.3675 164.116 51.4507 164.426C51.9225 166.187 50.9801 167.993 49.3198 168.639Z" fill="#B7EE81"/>
<path fill-rule="evenodd" clip-rule="evenodd" d="M47.7881 149.749C47.9273 150.269 47.9804 150.792 47.9559 151.302L62.7631 151.835C62.8655 150.175 64.0101 148.692 65.705 148.238C67.8271 147.669 70.0084 148.929 70.577 151.051C71.0993 153 70.0797 154.999 68.266 155.752L73.4267 175.261C75.9879 174.798 78.5184 176.37 79.2041 178.93C79.927 181.627 78.3261 184.4 75.6285 185.123C73.8156 185.609 71.9688 185.045 70.733 183.804L60.0219 191.225C60.2003 191.56 60.3436 191.919 60.4459 192.301C61.1688 194.999 59.5679 197.772 56.8703 198.494C54.1726 199.217 51.3998 197.616 50.677 194.919C50.5712 194.524 50.5152 194.128 50.5051 193.737L36.4568 193.228C36.4348 195.441 34.9502 197.458 32.7079 198.059C30.0102 198.782 27.2374 197.181 26.5146 194.484C25.7917 191.786 27.3926 189.013 30.0902 188.29L24.6665 168.049C24.6464 168.054 24.6262 168.06 24.606 168.065C22.358 168.668 20.0473 167.334 19.4449 165.086C18.8426 162.838 20.1766 160.527 22.4246 159.925C24.3061 159.42 26.2315 160.273 27.1625 161.882L38.8214 154.045C38.4622 153.554 38.186 152.99 38.0191 152.367C37.2963 149.669 38.8971 146.896 41.5948 146.173C44.2924 145.451 47.0652 147.052 47.7881 149.749ZM47.8789 151.969L62.7703 152.419C62.7902 152.648 62.8304 152.88 62.8921 153.11C63.0279 153.617 63.2556 154.074 63.5525 154.469L50.7003 163.015C49.8399 162.03 48.4643 161.562 47.1155 161.923C45.6766 162.309 44.6835 163.527 44.5161 164.921L27.7131 164.377C27.7569 163.895 27.7181 163.398 27.5857 162.904C27.5483 162.765 27.5044 162.629 27.4543 162.497L39.2684 154.575C40.5041 155.85 42.3756 156.435 44.2124 155.943C46.1609 155.42 47.5372 153.829 47.8789 151.969ZM44.5013 165.61L27.5917 165.066C27.2803 166.247 26.4621 167.265 25.319 167.804L30.7723 188.156C33.2405 187.845 35.6216 189.396 36.2835 191.866C36.343 192.088 36.3868 192.311 36.4155 192.533L50.5351 193.044C50.7528 191.116 52.0761 189.416 54.0146 188.795L48.6912 168.82C46.8867 169.164 45.0955 168.061 44.6125 166.258C44.5545 166.042 44.5179 165.825 44.5013 165.61ZM49.3198 168.639L54.6447 188.637C56.5473 188.284 58.4362 189.055 59.5676 190.522L70.2515 183.244C69.8854 182.749 69.6042 182.178 69.4352 181.547C68.7356 178.936 70.2125 176.255 72.7536 175.43L67.6037 155.963C66.2806 156.26 64.9508 155.857 64.0185 154.988L51.0915 163.561C51.2456 163.826 51.3675 164.116 51.4507 164.426C51.9225 166.187 50.9801 167.993 49.3198 168.639Z" fill="white" fill-opacity="0.5"/>
</g>
</g>
<path fill-rule="evenodd" clip-rule="evenodd" d="M72.7067 83.6779C73.03 83.6779 73.3489 83.6962 73.6629 83.7306C73.6629 83.713 73.6622 83.6955 73.6622 83.6779C73.6622 74.109 81.4194 66.3518 90.9883 66.3518C98.0832 66.3518 104.181 70.6169 106.86 76.7223C107.54 76.6054 108.238 76.5436 108.951 76.5436C115.706 76.5436 121.182 82.0193 121.182 88.7738C121.182 95.5283 115.706 101.004 108.951 101.004H72.7067C67.9222 101.004 64.0437 97.1254 64.0437 92.3409C64.0437 87.5565 67.9222 83.6779 72.7067 83.6779Z" fill="#1443BD"/>
<path fill-rule="evenodd" clip-rule="evenodd" d="M142.014 111.716C141.463 111.716 140.918 111.747 140.382 111.806C140.382 111.776 140.383 111.746 140.383 111.716C140.383 95.3831 127.143 82.1426 110.81 82.1426C98.6997 82.1426 88.2915 89.4226 83.718 99.844C82.5582 99.6442 81.3659 99.5388 80.1489 99.5388C68.6196 99.5388 59.2734 108.885 59.2734 120.414C59.2734 131.944 68.6196 141.29 80.1489 141.29H142.014C150.181 141.29 156.801 134.67 156.801 126.503C156.801 118.336 150.181 111.716 142.014 111.716Z" fill="#2A84C6"/>
<path fill-rule="evenodd" clip-rule="evenodd" d="M142.014 111.716C141.463 111.716 140.918 111.747 140.382 111.806C140.382 111.776 140.383 111.746 140.383 111.716C140.383 95.3831 127.143 82.1426 110.81 82.1426C98.6997 82.1426 88.2915 89.4226 83.718 99.844C82.5582 99.6442 81.3659 99.5388 80.1489 99.5388C68.6196 99.5388 59.2734 108.885 59.2734 120.414C59.2734 131.944 68.6196 141.29 80.1489 141.29H142.014C150.181 141.29 156.801 134.67 156.801 126.503C156.801 118.336 150.181 111.716 142.014 111.716Z" fill="white" fill-opacity="0.85"/>
<path fill-rule="evenodd" clip-rule="evenodd" d="M149.344 134.757C149.069 134.757 148.798 134.773 148.531 134.802C148.531 134.787 148.532 134.772 148.532 134.757C148.532 126.612 141.942 120.009 133.813 120.009C127.785 120.009 122.605 123.64 120.329 128.837C119.751 128.737 119.158 128.685 118.552 128.685C112.814 128.685 108.162 133.345 108.162 139.095C108.162 144.844 112.814 149.505 118.552 149.505H149.344C153.408 149.505 156.703 146.204 156.703 142.131C156.703 138.059 153.408 134.757 149.344 134.757Z" fill="#B7EE81"/>
<path fill-rule="evenodd" clip-rule="evenodd" d="M149.344 134.757C149.069 134.757 148.798 134.773 148.531 134.802C148.531 134.787 148.532 134.772 148.532 134.757C148.532 126.612 141.942 120.009 133.813 120.009C127.785 120.009 122.605 123.64 120.329 128.837C119.751 128.737 119.158 128.685 118.552 128.685C112.814 128.685 108.162 133.345 108.162 139.095C108.162 144.844 112.814 149.505 118.552 149.505H149.344C153.408 149.505 156.703 146.204 156.703 142.131C156.703 138.059 153.408 134.757 149.344 134.757Z" fill="white" fill-opacity="0.85"/>
</g>
</g>
<defs>
<filter id="filter0_ddddd_450_525" x="-42" y="-2" width="300" height="300" filterUnits="userSpaceOnUse" color-interpolation-filters="sRGB">
<feFlood flood-opacity="0" result="BackgroundImageFix"/>
<feColorMatrix in="SourceAlpha" type="matrix" values="0 0 0 0 0 0 0 0 0 0 0 0 0 0 0 0 0 0 127 0" result="hardAlpha"/>
<feOffset dy="6"/>
<feGaussianBlur stdDeviation="4"/>
<feColorMatrix type="matrix" values="0 0 0 0 0.705882 0 0 0 0 0.831373 0 0 0 0 0.921569 0 0 0 0.12 0"/>
<feBlend mode="normal" in2="BackgroundImageFix" result="effect1_dropShadow_450_525"/>
<feColorMatrix in="SourceAlpha" type="matrix" values="0 0 0 0 0 0 0 0 0 0 0 0 0 0 0 0 0 0 127 0" result="hardAlpha"/>
<feOffset dy="8"/>
<feGaussianBlur stdDeviation="12"/>
<feColorMatrix type="matrix" values="0 0 0 0 0.705882 0 0 0 0 0.831373 0 0 0 0 0.921569 0 0 0 0.08 0"/>
<feBlend mode="normal" in2="effect1_dropShadow_450_525" result="effect2_dropShadow_450_525"/>
<feColorMatrix in="SourceAlpha" type="matrix" values="0 0 0 0 0 0 0 0 0 0 0 0 0 0 0 0 0 0 127 0" result="hardAlpha"/>
<feOffset dy="16"/>
<feGaussianBlur stdDeviation="18"/>
<feColorMatrix type="matrix" values="0 0 0 0 0.705882 0 0 0 0 0.831373 0 0 0 0 0.921569 0 0 0 0.04 0"/>
<feBlend mode="normal" in2="effect2_dropShadow_450_525" result="effect3_dropShadow_450_525"/>
<feColorMatrix in="SourceAlpha" type="matrix" values="0 0 0 0 0 0 0 0 0 0 0 0 0 0 0 0 0 0 127 0" result="hardAlpha"/>
<feOffset dy="40"/>
<feGaussianBlur stdDeviation="35"/>
<feColorMatrix type="matrix" values="0 0 0 0 0.705882 0 0 0 0 0.831373 0 0 0 0 0.921569 0 0 0 0.04 0"/>
<feBlend mode="normal" in2="effect3_dropShadow_450_525" result="effect4_dropShadow_450_525"/>
<feColorMatrix in="SourceAlpha" type="matrix" values="0 0 0 0 0 0 0 0 0 0 0 0 0 0 0 0 0 0 127 0" result="hardAlpha"/>
<feOffset dy="2"/>
<feGaussianBlur stdDeviation="2"/>
<feColorMatrix type="matrix" values="0 0 0 0 0.87451 0 0 0 0 0.929412 0 0 0 0 0.964706 0 0 0 0.4 0"/>
<feBlend mode="normal" in2="effect4_dropShadow_450_525" result="effect5_dropShadow_450_525"/>
<feBlend mode="normal" in="SourceGraphic" in2="effect5_dropShadow_450_525" result="shape"/>
</filter>
<clipPath id="clip0_450_525">
<rect x="28" y="28" width="160" height="160" rx="16" fill="white"/>
</clipPath>
<clipPath id="clip1_450_525">
<rect width="69.0419" height="69.0419" fill="white" transform="translate(13 152.869) rotate(-15)"/>
</clipPath>
</defs>
</svg>
