<svg width="240" height="249" viewBox="0 0 240 249" fill="none" xmlns="http://www.w3.org/2000/svg">
<path d="M152.871 57.7981H0.631226V123.351H152.871V57.7981Z" fill="#1443BD"/>
<path d="M152.871 57.7981H0.631226V123.351H152.871V57.7981Z" fill="black" fill-opacity="0.35"/>
<path d="M70.9714 2.05271L0.699585 57.792L148.884 61.626C149.203 61.6254 149.52 61.5898 149.831 61.5199C151.691 61.0536 152.987 59.7074 152.966 57.792L80.4542 1.87013C77.5718 -0.0049789 73.8538 0.177595 70.9714 2.05271Z" fill="#1443BD"/>
<path d="M70.9714 2.05271L0.699585 57.792L148.884 61.626C149.203 61.6254 149.52 61.5898 149.831 61.5199C151.691 61.0536 152.987 59.7074 152.966 57.792L80.4542 1.87013C77.5718 -0.0049789 73.8538 0.177595 70.9714 2.05271Z" fill="black" fill-opacity="0.35"/>
<path fill-rule="evenodd" clip-rule="evenodd" d="M43.5043 60.694L57.2736 48.344L66.6195 64.5123L43.5043 60.694Z" fill="#FFD666"/>
<path fill-rule="evenodd" clip-rule="evenodd" d="M110.502 71.761L101.42 55.6365L88.1203 68.064L110.502 71.761Z" fill="#FFA940"/>
<path fill-rule="evenodd" clip-rule="evenodd" d="M43.5043 60.694L70.3722 106.141L66.6301 64.514L43.5043 60.694Z" fill="#FFC53D"/>
<path fill-rule="evenodd" clip-rule="evenodd" d="M110.355 71.7367L70.3722 106.141L88.0531 68.0528L110.355 71.7367Z" fill="#FA8C16"/>
<path fill-rule="evenodd" clip-rule="evenodd" d="M57.1567 48.3247L79.3913 51.9975L65.9224 64.3971L57.1567 48.3247Z" fill="#FFC53D"/>
<path fill-rule="evenodd" clip-rule="evenodd" d="M79.2444 51.9733L101.479 55.6461L88.0907 68.059L79.2444 51.9733Z" fill="#FFC53D"/>
<path fill-rule="evenodd" clip-rule="evenodd" d="M65.8889 64.3717L79.3405 51.9891L88.1234 68.0446L86.1392 72.1089L66.5117 68.6768L65.8889 64.3717Z" fill="#FFA940"/>
<path fill-rule="evenodd" clip-rule="evenodd" d="M65.9591 64.4032L70.3907 106.144L88.1203 68.0639L65.9591 64.4032Z" fill="#FAAD14"/>
<g clip-path="url(#clip0_552_869)">
<path d="M65.6003 131.057C80.1388 137.644 97.2962 131.131 103.922 116.508C110.548 101.885 104.134 84.6905 89.5955 78.1026C75.057 71.5146 57.8996 78.0282 51.2735 92.651C44.6474 107.274 51.0617 124.469 65.6003 131.057Z" fill="#FFD666"/>
<path d="M67.71 125.513C79.5209 130.865 93.434 125.629 98.7859 113.818C104.138 102.007 98.9018 88.094 87.091 82.7421C75.2801 77.3902 61.367 82.6262 56.0151 94.4371C50.6632 106.248 55.8992 120.161 67.71 125.513Z" fill="#FFC53D"/>
<path d="M71.2571 118.105C70.6299 117.821 70.1512 117.545 69.821 117.28L71.2804 114.059C70.1507 113.344 69.1662 112.549 68.3268 111.674C67.4873 110.799 66.8497 110.009 66.4138 109.302C66.6608 108.789 67.0691 108.305 67.6384 107.851C68.2078 107.397 68.7341 107.133 69.2173 107.062C69.797 107.964 70.5307 108.864 71.4184 109.76C72.306 110.657 73.2718 111.349 74.3157 111.836C75.341 112.301 76.2837 112.466 77.1438 112.333C78.0094 112.187 78.6314 111.713 79.0096 110.91C79.3223 110.252 79.3884 109.577 79.2078 108.885C79.0327 108.18 78.5639 107.466 77.8014 106.743L74.8571 103.904C73.7501 102.85 72.9986 101.717 72.6027 100.505C72.2242 99.2869 72.3329 98.0204 72.9286 96.7056C73.6118 95.1979 74.6972 94.1341 76.1848 93.5143C77.6844 92.8999 79.3211 92.8492 81.095 93.3622L82.5297 90.196C82.7566 90.2407 83.0082 90.3111 83.2845 90.4072C83.5728 90.5088 83.8436 90.617 84.0969 90.7317C84.688 90.9996 85.1606 91.2719 85.515 91.5488L84.072 94.7331C85.036 95.3007 85.8806 95.9233 86.6058 96.6009C87.3431 97.2839 87.9702 97.9533 88.4872 98.6092C88.2467 99.1399 87.8768 99.6192 87.3776 100.047C86.8904 100.481 86.3746 100.785 85.8301 100.96C85.1935 100.119 84.489 99.3635 83.7166 98.6937C82.9564 98.0293 82.1481 97.5031 81.2917 97.115C80.3026 96.6669 79.4142 96.526 78.6264 96.6924C77.8386 96.8588 77.278 97.3099 76.9446 98.0457C76.6276 98.7452 76.6163 99.3798 76.9107 99.9493C77.2105 100.507 77.6742 101.088 78.3018 101.692L81.0816 104.413C82.2632 105.559 83.0516 106.803 83.4466 108.145C83.8416 109.487 83.692 110.924 82.9979 112.456C82.2983 114 81.1592 115.054 79.5806 115.618C78.0075 116.17 76.2276 116.119 74.241 115.466L72.8063 118.632C72.4007 118.565 71.8844 118.389 71.2571 118.105Z" fill="white"/>
</g>
<g clip-path="url(#clip1_552_869)">
<path d="M102.554 101.035C111.088 104.902 121.158 101.078 125.048 92.4954C128.937 83.9124 125.172 73.8198 116.638 69.953C108.105 66.0861 98.0341 69.9093 94.1449 78.4923C90.2556 87.0753 94.0206 97.1679 102.554 101.035Z" fill="#FFD666"/>
<path d="M103.793 97.7806C110.725 100.922 118.891 97.8486 122.033 90.9161C125.174 83.9836 122.101 75.8172 115.168 72.6758C108.236 69.5345 100.069 72.6078 96.9281 79.5403C93.7867 86.4728 96.86 94.6392 103.793 97.7806Z" fill="#FFC53D"/>
<path d="M105.875 93.4325C105.507 93.2657 105.226 93.1042 105.032 92.9481L105.888 91.0579C105.225 90.6379 104.647 90.1713 104.155 89.6579C103.662 89.1445 103.288 88.6805 103.032 88.2659C103.177 87.9646 103.416 87.6807 103.751 87.414C104.085 87.1473 104.394 86.9928 104.677 86.9507C105.018 87.4804 105.448 88.0083 105.969 88.5345C106.49 89.0608 107.057 89.467 107.67 89.7531C108.272 90.0258 108.825 90.123 109.33 90.0445C109.838 89.959 110.203 89.6807 110.425 89.2096C110.609 88.8234 110.647 88.4271 110.541 88.0207C110.439 87.6072 110.163 87.1881 109.716 86.7634L107.988 85.0971C107.338 84.4784 106.897 83.8134 106.664 83.1023C106.442 82.3872 106.506 81.6438 106.856 80.8721C107.257 79.9872 107.894 79.3628 108.767 78.9989C109.647 78.6383 110.608 78.6086 111.649 78.9097L112.491 77.0513C112.624 77.0775 112.772 77.1188 112.934 77.1752C113.103 77.2348 113.262 77.2983 113.411 77.3657C113.758 77.5229 114.035 77.6827 114.243 77.8453L113.396 79.7143C113.962 80.0475 114.458 80.4129 114.884 80.8106C115.316 81.2115 115.685 81.6045 115.988 81.9894C115.847 82.3009 115.63 82.5823 115.337 82.8335C115.051 83.0879 114.748 83.2665 114.428 83.3691C114.055 82.8755 113.641 82.4322 113.188 82.039C112.742 81.6491 112.267 81.3402 111.765 81.1124C111.184 80.8494 110.663 80.7667 110.2 80.8644C109.738 80.962 109.409 81.2268 109.213 81.6587C109.027 82.0693 109.02 82.4418 109.193 82.776C109.369 83.1033 109.641 83.4442 110.01 83.7989L111.641 85.3958C112.335 86.0685 112.798 86.7987 113.029 87.5864C113.261 88.3742 113.173 89.2176 112.766 90.1167C112.355 91.0229 111.687 91.6416 110.76 91.9727C109.837 92.2967 108.792 92.267 107.626 91.8837L106.784 93.7421C106.546 93.7025 106.243 93.5993 105.875 93.4325Z" fill="white"/>
</g>
<g clip-path="url(#clip2_552_869)">
<path d="M46.5222 100.426C55.7121 98.6043 61.6762 89.6341 59.8435 80.391C58.0107 71.1479 49.0752 65.132 39.8853 66.9542C30.6955 68.7764 24.7313 77.7466 26.5641 86.9897C28.3968 96.2328 37.3324 102.249 46.5222 100.426Z" fill="#FFD666"/>
<path d="M45.6352 97.0593C53.1009 95.579 57.953 88.3269 56.4727 80.8612C54.9924 73.3956 47.7403 68.5435 40.2746 70.0238C32.8089 71.5041 27.9569 78.7562 29.4371 86.2219C30.9174 93.6875 38.1696 98.5396 45.6352 97.0593Z" fill="#FFC53D"/>
<path d="M44.7973 92.3117C44.4009 92.3903 44.0784 92.4226 43.83 92.4085L43.4263 90.3728C42.6427 90.4172 41.9012 90.3741 41.2018 90.2433C40.5023 90.1126 39.9279 89.9531 39.4785 89.7649C39.4211 89.4355 39.4507 89.0652 39.5672 88.6538C39.6838 88.2424 39.8451 87.9371 40.0512 87.7377C40.6362 87.9704 41.2936 88.149 42.0236 88.2737C42.7535 88.3984 43.4509 88.3988 44.1158 88.2749C44.7638 88.1464 45.2703 87.9033 45.6352 87.5457C45.9986 87.1805 46.1335 86.7417 46.0398 86.2294C45.9643 85.8085 45.7652 85.4637 45.4425 85.1949C45.1182 84.9184 44.6506 84.7378 44.0394 84.6529L41.6643 84.3037C40.7758 84.1788 40.0301 83.8948 39.4272 83.4517C38.8304 82.9995 38.4496 82.3579 38.2849 81.5269C38.0959 80.5738 38.2505 79.6953 38.7488 78.8913C39.2547 78.0857 40.0186 77.5024 41.0405 77.1413L40.6437 75.1399C40.7672 75.0837 40.9114 75.0314 41.0761 74.9829C41.2484 74.9329 41.4146 74.892 41.5747 74.8602C41.9483 74.7862 42.267 74.7547 42.5307 74.7658L42.9298 76.7786C43.5838 76.7202 44.1996 76.7289 44.7772 76.8045C45.3625 76.8786 45.8905 76.9839 46.3613 77.1204C46.4278 77.4558 46.415 77.811 46.3229 78.1858C46.2385 78.5592 46.0962 78.8806 45.896 79.15C45.3049 78.9661 44.7106 78.8463 44.1131 78.7904C43.5233 78.733 42.9577 78.758 42.4164 78.8653C41.7912 78.9893 41.3191 79.2256 40.9999 79.5741C40.6807 79.9226 40.5673 80.3295 40.6595 80.7945C40.7472 81.2367 40.9585 81.5435 41.2936 81.7148C41.6272 81.8784 42.0469 81.9973 42.5529 82.0713L44.8091 82.4203C45.7646 82.5636 46.5659 82.8881 47.2129 83.3937C47.8599 83.8994 48.2794 84.6363 48.4714 85.6046C48.6649 86.5805 48.4813 87.4727 47.9205 88.2812C47.3582 89.0821 46.4914 89.666 45.3201 90.0329L45.717 92.0343C45.5003 92.1406 45.1938 92.2331 44.7973 92.3117Z" fill="white"/>
</g>
<path d="M80.8398 116.064C78.3253 116.904 75.5648 116.549 73.3445 115.101L0.517212 57.7919V154.336C0.517212 156.474 2.6233 158.207 4.87502 158.207H148.882C151.138 158.207 152.967 156.474 152.967 154.336V57.7919L83.4213 114.643C82.6504 115.264 81.7767 115.745 80.8398 116.064Z" fill="#2A84C6"/>
<path d="M80.8398 116.064C78.3253 116.904 75.5648 116.549 73.3445 115.101L0.517212 57.7919V154.336C0.517212 156.474 2.6233 158.207 4.87502 158.207H148.882C151.138 158.207 152.967 156.474 152.967 154.336V57.7919L83.4213 114.643C82.6504 115.264 81.7767 115.745 80.8398 116.064Z" fill="white" fill-opacity="0.85"/>
<path fill-rule="evenodd" clip-rule="evenodd" d="M80.8398 116.064C78.3253 116.904 75.5648 116.549 73.3445 115.101L72.7625 114.643L0.517212 154.336C0.517212 156.474 2.6233 158.207 4.87502 158.207H148.882C151.138 158.207 152.967 156.474 152.967 154.336L83.4213 114.643C82.6504 115.264 81.7767 115.745 80.8398 116.064Z" fill="#1443BD"/>
<path fill-rule="evenodd" clip-rule="evenodd" d="M80.8398 116.064C78.3253 116.904 75.5648 116.549 73.3445 115.101L72.7625 114.643L0.517212 154.336C0.517212 156.474 2.6233 158.207 4.87502 158.207H148.882C151.138 158.207 152.967 156.474 152.967 154.336L83.4213 114.643C82.6504 115.264 81.7767 115.745 80.8398 116.064Z" fill="white" fill-opacity="0.85"/>
<g clip-path="url(#clip3_552_869)" filter="url(#filter0_ddddd_552_869)">
<path fill-rule="evenodd" clip-rule="evenodd" d="M98.904 60.3681L98.3971 57.0504L96.1804 54.5305L96.1802 54.5303L99.4981 54.0233L102.018 51.8065L102.525 55.1244L104.742 57.6445L104.742 57.6446L101.424 58.1515L98.9042 60.3682L98.904 60.3683L98.904 60.3681Z" fill="white"/>
</g>
<g filter="url(#filter1_ddddd_552_869)">
<ellipse cx="152.689" cy="121.846" rx="16.7941" ry="16.7941" fill="white"/>
<path d="M159.825 114.724C159.397 114.285 158.764 114.122 158.174 114.294L144.407 118.297C143.784 118.47 143.343 118.967 143.224 119.598C143.102 120.24 143.527 121.056 144.081 121.397L148.386 124.042C148.827 124.313 149.397 124.245 149.762 123.877L154.692 118.917C154.94 118.659 155.35 118.659 155.599 118.917C155.847 119.167 155.847 119.571 155.599 119.83L150.661 124.79C150.295 125.158 150.226 125.73 150.496 126.175L153.126 130.522C153.434 131.039 153.964 131.332 154.546 131.332C154.615 131.332 154.692 131.332 154.76 131.323C155.427 131.237 155.958 130.781 156.155 130.135L160.236 116.386C160.416 115.8 160.253 115.163 159.825 114.724" fill="#1443BD"/>
</g>
<defs>
<filter id="filter0_ddddd_552_869" x="22.9127" y="18.5388" width="155.097" height="155.097" filterUnits="userSpaceOnUse" color-interpolation-filters="sRGB">
<feFlood flood-opacity="0" result="BackgroundImageFix"/>
<feColorMatrix in="SourceAlpha" type="matrix" values="0 0 0 0 0 0 0 0 0 0 0 0 0 0 0 0 0 0 127 0" result="hardAlpha"/>
<feOffset dy="6"/>
<feGaussianBlur stdDeviation="4"/>
<feColorMatrix type="matrix" values="0 0 0 0 0.705882 0 0 0 0 0.831373 0 0 0 0 0.921569 0 0 0 0.12 0"/>
<feBlend mode="normal" in2="BackgroundImageFix" result="effect1_dropShadow_552_869"/>
<feColorMatrix in="SourceAlpha" type="matrix" values="0 0 0 0 0 0 0 0 0 0 0 0 0 0 0 0 0 0 127 0" result="hardAlpha"/>
<feOffset dy="8"/>
<feGaussianBlur stdDeviation="12"/>
<feColorMatrix type="matrix" values="0 0 0 0 0.705882 0 0 0 0 0.831373 0 0 0 0 0.921569 0 0 0 0.08 0"/>
<feBlend mode="normal" in2="effect1_dropShadow_552_869" result="effect2_dropShadow_552_869"/>
<feColorMatrix in="SourceAlpha" type="matrix" values="0 0 0 0 0 0 0 0 0 0 0 0 0 0 0 0 0 0 127 0" result="hardAlpha"/>
<feOffset dy="16"/>
<feGaussianBlur stdDeviation="18"/>
<feColorMatrix type="matrix" values="0 0 0 0 0.705882 0 0 0 0 0.831373 0 0 0 0 0.921569 0 0 0 0.04 0"/>
<feBlend mode="normal" in2="effect2_dropShadow_552_869" result="effect3_dropShadow_552_869"/>
<feColorMatrix in="SourceAlpha" type="matrix" values="0 0 0 0 0 0 0 0 0 0 0 0 0 0 0 0 0 0 127 0" result="hardAlpha"/>
<feOffset dy="40"/>
<feGaussianBlur stdDeviation="35"/>
<feColorMatrix type="matrix" values="0 0 0 0 0.705882 0 0 0 0 0.831373 0 0 0 0 0.921569 0 0 0 0.04 0"/>
<feBlend mode="normal" in2="effect3_dropShadow_552_869" result="effect4_dropShadow_552_869"/>
<feColorMatrix in="SourceAlpha" type="matrix" values="0 0 0 0 0 0 0 0 0 0 0 0 0 0 0 0 0 0 127 0" result="hardAlpha"/>
<feOffset dy="2"/>
<feGaussianBlur stdDeviation="2"/>
<feColorMatrix type="matrix" values="0 0 0 0 0.87451 0 0 0 0 0.929412 0 0 0 0 0.964706 0 0 0 0.4 0"/>
<feBlend mode="normal" in2="effect4_dropShadow_552_869" result="effect5_dropShadow_552_869"/>
<feBlend mode="normal" in="SourceGraphic" in2="effect5_dropShadow_552_869" result="shape"/>
</filter>
<filter id="filter1_ddddd_552_869" x="65.8945" y="75.0519" width="173.588" height="173.588" filterUnits="userSpaceOnUse" color-interpolation-filters="sRGB">
<feFlood flood-opacity="0" result="BackgroundImageFix"/>
<feColorMatrix in="SourceAlpha" type="matrix" values="0 0 0 0 0 0 0 0 0 0 0 0 0 0 0 0 0 0 127 0" result="hardAlpha"/>
<feOffset dy="6"/>
<feGaussianBlur stdDeviation="4"/>
<feColorMatrix type="matrix" values="0 0 0 0 0.0392157 0 0 0 0 0.129412 0 0 0 0 0.372549 0 0 0 0.12 0"/>
<feBlend mode="normal" in2="BackgroundImageFix" result="effect1_dropShadow_552_869"/>
<feColorMatrix in="SourceAlpha" type="matrix" values="0 0 0 0 0 0 0 0 0 0 0 0 0 0 0 0 0 0 127 0" result="hardAlpha"/>
<feOffset dy="8"/>
<feGaussianBlur stdDeviation="12"/>
<feColorMatrix type="matrix" values="0 0 0 0 0.0392157 0 0 0 0 0.129412 0 0 0 0 0.372549 0 0 0 0.08 0"/>
<feBlend mode="normal" in2="effect1_dropShadow_552_869" result="effect2_dropShadow_552_869"/>
<feColorMatrix in="SourceAlpha" type="matrix" values="0 0 0 0 0 0 0 0 0 0 0 0 0 0 0 0 0 0 127 0" result="hardAlpha"/>
<feOffset dy="16"/>
<feGaussianBlur stdDeviation="18"/>
<feColorMatrix type="matrix" values="0 0 0 0 0.0392157 0 0 0 0 0.129412 0 0 0 0 0.372549 0 0 0 0.04 0"/>
<feBlend mode="normal" in2="effect2_dropShadow_552_869" result="effect3_dropShadow_552_869"/>
<feColorMatrix in="SourceAlpha" type="matrix" values="0 0 0 0 0 0 0 0 0 0 0 0 0 0 0 0 0 0 127 0" result="hardAlpha"/>
<feOffset dy="40"/>
<feGaussianBlur stdDeviation="35"/>
<feColorMatrix type="matrix" values="0 0 0 0 0.0392157 0 0 0 0 0.129412 0 0 0 0 0.372549 0 0 0 0.04 0"/>
<feBlend mode="normal" in2="effect3_dropShadow_552_869" result="effect4_dropShadow_552_869"/>
<feColorMatrix in="SourceAlpha" type="matrix" values="0 0 0 0 0 0 0 0 0 0 0 0 0 0 0 0 0 0 127 0" result="hardAlpha"/>
<feOffset dy="2"/>
<feGaussianBlur stdDeviation="2"/>
<feColorMatrix type="matrix" values="0 0 0 0 0.537255 0 0 0 0 0.631373 0 0 0 0 0.870588 0 0 0 0.4 0"/>
<feBlend mode="normal" in2="effect4_dropShadow_552_869" result="effect5_dropShadow_552_869"/>
<feBlend mode="normal" in="SourceGraphic" in2="effect5_dropShadow_552_869" result="shape"/>
</filter>
<clipPath id="clip0_552_869">
<rect width="68.1032" height="68.1032" fill="white" transform="translate(60.0511 58.0277) rotate(24.3769)"/>
</clipPath>
<clipPath id="clip1_552_869">
<rect width="39.9738" height="39.9738" fill="white" transform="translate(99.2971 58.1699) rotate(24.3769)"/>
</clipPath>
<clipPath id="clip2_552_869">
<rect width="39.9737" height="39.9737" fill="white" transform="translate(18.9256 67.4651) rotate(-11.2152)"/>
</clipPath>
<clipPath id="clip3_552_869">
<rect width="11.78" height="11.78" fill="white" transform="matrix(0.939764 0.341825 0.341824 -0.939764 92.9127 59.6093)"/>
</clipPath>
</defs>
</svg>

