
<svg width="200" height="200" viewBox="0 0 200 200" fill="none" xmlns="http://www.w3.org/2000/svg">
<g clip-path="url(#clip0_399_906)">
<path fill-rule="evenodd" clip-rule="evenodd" d="M132.575 17.2413H59.2542C56.8692 17.2413 54.8777 19.0199 54.5438 21.3909C52.3643 36.8648 38.3152 44.8198 32.1789 47.5029C30.4451 48.2609 29.3185 49.9724 29.3185 51.8714V114.838C29.3185 156.045 95.9144 182.301 95.9144 182.301C95.9144 182.301 162.51 156.045 162.51 114.838V51.8712C162.51 49.9724 161.383 48.2609 159.65 47.5029C153.513 44.8198 139.464 36.8648 137.285 21.3909C136.951 19.0199 134.959 17.4401 132.575 17.4401V17.2413Z" fill="#2A84C6"/>
<path fill-rule="evenodd" clip-rule="evenodd" d="M132.575 17.2413H59.2542C56.8692 17.2413 54.8777 19.0199 54.5438 21.3909C52.3643 36.8648 38.3152 44.8198 32.1789 47.5029C30.4451 48.2609 29.3185 49.9724 29.3185 51.8714V114.838C29.3185 156.045 95.9144 182.301 95.9144 182.301C95.9144 182.301 162.51 156.045 162.51 114.838V51.8712C162.51 49.9724 161.383 48.2609 159.65 47.5029C153.513 44.8198 139.464 36.8648 137.285 21.3909C136.951 19.0199 134.959 17.4401 132.575 17.4401V17.2413Z" fill="white" fill-opacity="0.85"/>
<path fill-rule="evenodd" clip-rule="evenodd" d="M126.41 29.5063C127.314 32.3106 128.524 35.0157 130.031 37.5983C132.248 41.3943 135.116 44.9325 138.558 48.1142C142.417 51.6824 146.495 54.3515 150.04 56.2813V114.496C150.04 130.255 135.012 144.212 122.406 153.145C112.158 160.408 101.72 165.628 95.9056 168.298C90.1852 165.675 79.9807 160.576 69.7906 153.406C61.1686 147.339 54.3901 141.08 49.6436 134.804C47.0595 131.386 45.0874 127.959 43.7822 124.618C42.4404 121.183 41.788 117.872 41.788 114.496V56.2813C45.3323 54.3515 49.4114 51.6822 53.2702 48.1142C56.7112 44.9325 59.5797 41.3945 61.7962 37.5983C63.3039 35.0159 64.5137 32.3106 65.4175 29.5063H126.41Z" fill="#1443BD"/>
<path fill-rule="evenodd" clip-rule="evenodd" d="M126.41 29.5063C127.314 32.3106 128.524 35.0157 130.031 37.5983C132.248 41.3943 135.116 44.9325 138.558 48.1142C142.417 51.6824 146.495 54.3515 150.04 56.2813V114.496C150.04 130.255 135.012 144.212 122.406 153.145C112.158 160.408 101.72 165.628 95.9056 168.298C90.1852 165.675 79.9807 160.576 69.7906 153.406C61.1686 147.339 54.3901 141.08 49.6436 134.804C47.0595 131.386 45.0874 127.959 43.7822 124.618C42.4404 121.183 41.788 117.872 41.788 114.496V56.2813C45.3323 54.3515 49.4114 51.6822 53.2702 48.1142C56.7112 44.9325 59.5797 41.3945 61.7962 37.5983C63.3039 35.0159 64.5137 32.3106 65.4175 29.5063H126.41Z" fill="white" fill-opacity="0.5"/>
<g filter="url(#filter0_ddddd_399_906)">
<path fill-rule="evenodd" clip-rule="evenodd" d="M99.1079 62.2711L77.2183 95.6282C76.0405 97.4368 77.3069 99.6607 79.4302 99.6607H89.2353L77.1799 122.446C76.2804 124.287 78.5979 125.996 80.0191 124.54L112.807 91.5788C114.48 89.8639 113.294 86.934 110.926 86.934H96.0987L102.302 63.7191C102.786 61.7432 100.212 60.576 99.1079 62.2711Z" fill="white"/>
</g>
<g filter="url(#filter1_ddddd_399_906)">
<path fill-rule="evenodd" clip-rule="evenodd" d="M52.2109 132.048C52.2109 141.757 44.3397 149.629 34.63 149.629C24.9203 149.629 17.049 141.757 17.049 132.048C17.049 122.338 24.9203 114.467 34.63 114.467C44.3397 114.467 52.2109 122.338 52.2109 132.048Z" fill="white"/>
<path fill-rule="evenodd" clip-rule="evenodd" d="M38.3769 126.923C38.3769 124.855 36.7006 123.178 34.6328 123.178C32.565 123.178 30.8887 124.855 30.8887 126.923V128.8H29.0167V126.924C29.0167 123.823 31.5298 121.309 34.6298 121.309H34.6299C37.7299 121.309 40.243 123.823 40.243 126.924V128.8H38.3769V126.923Z" fill="#1443BD"/>
<path fill-rule="evenodd" clip-rule="evenodd" d="M26.7366 140.628H42.5235C42.901 140.628 43.2098 140.297 43.2098 139.892V129.106C43.2098 128.702 42.901 128.371 42.5235 128.371H26.7366C26.3591 128.371 26.0502 128.702 26.0502 129.106V139.892C26.0502 140.297 26.3591 140.628 26.7366 140.628Z" fill="#1443BD"/>
<path fill-rule="evenodd" clip-rule="evenodd" d="M34.5812 131.706C34.2072 131.706 33.904 132.001 33.904 132.365L33.9041 134.53C33.5198 134.761 33.2626 135.181 33.2626 135.662C33.2626 136.39 33.8529 136.98 34.5812 136.98C35.3094 136.98 35.8998 136.39 35.8998 135.662C35.8998 135.181 35.6426 134.761 35.2583 134.53L35.2583 132.365C35.2583 132.005 34.9622 131.713 34.5943 131.706L34.5812 131.706Z" fill="white"/>
</g>
<path fill-rule="evenodd" clip-rule="evenodd" d="M169.344 104.539L163.945 97.4285C163.426 96.7444 162.418 96.7334 161.884 97.4056L156.067 104.735C155.232 105.787 153.567 105.111 153.668 103.761L155.42 80.2945C155.42 80.2876 155.426 80.2822 155.433 80.2822H170.009C170.016 80.2822 170.021 80.2876 170.022 80.2945L171.761 103.587C171.863 104.953 170.166 105.621 169.344 104.539Z" fill="#F56D7E"/>
<path fill-rule="evenodd" clip-rule="evenodd" d="M182.325 63.2587C182.325 73.9141 173.545 82.552 162.714 82.552C151.884 82.552 143.103 73.9141 143.103 63.2587C143.103 52.6034 151.884 43.9655 162.714 43.9655C173.545 43.9655 182.325 52.6034 182.325 63.2587Z" fill="#FFD666"/>
<path fill-rule="evenodd" clip-rule="evenodd" d="M176.291 63.2587C176.291 70.989 170.213 77.2558 162.714 77.2558C155.216 77.2558 149.138 70.989 149.138 63.2587C149.138 55.5283 155.216 49.2616 162.714 49.2616C170.213 49.2616 176.291 55.5283 176.291 63.2587Z" fill="#FAAD14"/>
<path fill-rule="evenodd" clip-rule="evenodd" d="M164.153 58.2724L164.984 60.0307C165.157 60.395 165.489 60.6476 165.875 60.7059L167.734 60.988C168.705 61.1351 169.092 62.3793 168.39 63.0935L167.044 64.4621C166.766 64.7457 166.639 65.1543 166.704 65.5549L167.022 67.4874C167.188 68.4958 166.173 69.2648 165.305 68.7887L163.642 67.8763C163.297 67.6871 162.886 67.6871 162.541 67.8763L160.878 68.7887C160.01 69.2648 158.996 68.4958 159.161 67.4874L159.479 65.5549C159.545 65.1543 159.418 64.7457 159.139 64.4621L157.793 63.0935C157.091 62.3793 157.478 61.1351 158.449 60.988L160.308 60.7059C160.694 60.6476 161.027 60.395 161.199 60.0307L162.031 58.2724C162.465 57.3548 163.718 57.3548 164.153 58.2724Z" fill="white"/>
</g>
<defs>
<filter id="filter0_ddddd_399_906" x="6.76733" y="31.454" width="176.823" height="203.633" filterUnits="userSpaceOnUse" color-interpolation-filters="sRGB">
<feFlood flood-opacity="0" result="BackgroundImageFix"/>
<feColorMatrix in="SourceAlpha" type="matrix" values="0 0 0 0 0 0 0 0 0 0 0 0 0 0 0 0 0 0 127 0" result="hardAlpha"/>
<feOffset dy="6"/>
<feGaussianBlur stdDeviation="4"/>
<feColorMatrix type="matrix" values="0 0 0 0 0.705882 0 0 0 0 0.831373 0 0 0 0 0.921569 0 0 0 0.12 0"/>
<feBlend mode="normal" in2="BackgroundImageFix" result="effect1_dropShadow_399_906"/>
<feColorMatrix in="SourceAlpha" type="matrix" values="0 0 0 0 0 0 0 0 0 0 0 0 0 0 0 0 0 0 127 0" result="hardAlpha"/>
<feOffset dy="8"/>
<feGaussianBlur stdDeviation="12"/>
<feColorMatrix type="matrix" values="0 0 0 0 0.705882 0 0 0 0 0.831373 0 0 0 0 0.921569 0 0 0 0.08 0"/>
<feBlend mode="normal" in2="effect1_dropShadow_399_906" result="effect2_dropShadow_399_906"/>
<feColorMatrix in="SourceAlpha" type="matrix" values="0 0 0 0 0 0 0 0 0 0 0 0 0 0 0 0 0 0 127 0" result="hardAlpha"/>
<feOffset dy="16"/>
<feGaussianBlur stdDeviation="18"/>
<feColorMatrix type="matrix" values="0 0 0 0 0.705882 0 0 0 0 0.831373 0 0 0 0 0.921569 0 0 0 0.04 0"/>
<feBlend mode="normal" in2="effect2_dropShadow_399_906" result="effect3_dropShadow_399_906"/>
<feColorMatrix in="SourceAlpha" type="matrix" values="0 0 0 0 0 0 0 0 0 0 0 0 0 0 0 0 0 0 127 0" result="hardAlpha"/>
<feOffset dy="40"/>
<feGaussianBlur stdDeviation="35"/>
<feColorMatrix type="matrix" values="0 0 0 0 0.705882 0 0 0 0 0.831373 0 0 0 0 0.921569 0 0 0 0.04 0"/>
<feBlend mode="normal" in2="effect3_dropShadow_399_906" result="effect4_dropShadow_399_906"/>
<feColorMatrix in="SourceAlpha" type="matrix" values="0 0 0 0 0 0 0 0 0 0 0 0 0 0 0 0 0 0 127 0" result="hardAlpha"/>
<feOffset dy="2"/>
<feGaussianBlur stdDeviation="2"/>
<feColorMatrix type="matrix" values="0 0 0 0 0.87451 0 0 0 0 0.929412 0 0 0 0 0.964706 0 0 0 0.4 0"/>
<feBlend mode="normal" in2="effect4_dropShadow_399_906" result="effect5_dropShadow_399_906"/>
<feBlend mode="normal" in="SourceGraphic" in2="effect5_dropShadow_399_906" result="shape"/>
</filter>
<filter id="filter1_ddddd_399_906" x="-56.2068" y="81.2109" width="181.673" height="181.673" filterUnits="userSpaceOnUse" color-interpolation-filters="sRGB">
<feFlood flood-opacity="0" result="BackgroundImageFix"/>
<feColorMatrix in="SourceAlpha" type="matrix" values="0 0 0 0 0 0 0 0 0 0 0 0 0 0 0 0 0 0 127 0" result="hardAlpha"/>
<feOffset dy="6"/>
<feGaussianBlur stdDeviation="4"/>
<feColorMatrix type="matrix" values="0 0 0 0 0.0392157 0 0 0 0 0.129412 0 0 0 0 0.372549 0 0 0 0.12 0"/>
<feBlend mode="normal" in2="BackgroundImageFix" result="effect1_dropShadow_399_906"/>
<feColorMatrix in="SourceAlpha" type="matrix" values="0 0 0 0 0 0 0 0 0 0 0 0 0 0 0 0 0 0 127 0" result="hardAlpha"/>
<feOffset dy="8"/>
<feGaussianBlur stdDeviation="12"/>
<feColorMatrix type="matrix" values="0 0 0 0 0.0392157 0 0 0 0 0.129412 0 0 0 0 0.372549 0 0 0 0.08 0"/>
<feBlend mode="normal" in2="effect1_dropShadow_399_906" result="effect2_dropShadow_399_906"/>
<feColorMatrix in="SourceAlpha" type="matrix" values="0 0 0 0 0 0 0 0 0 0 0 0 0 0 0 0 0 0 127 0" result="hardAlpha"/>
<feOffset dy="16"/>
<feGaussianBlur stdDeviation="18"/>
<feColorMatrix type="matrix" values="0 0 0 0 0.0392157 0 0 0 0 0.129412 0 0 0 0 0.372549 0 0 0 0.04 0"/>
<feBlend mode="normal" in2="effect2_dropShadow_399_906" result="effect3_dropShadow_399_906"/>
<feColorMatrix in="SourceAlpha" type="matrix" values="0 0 0 0 0 0 0 0 0 0 0 0 0 0 0 0 0 0 127 0" result="hardAlpha"/>
<feOffset dy="40"/>
<feGaussianBlur stdDeviation="35"/>
<feColorMatrix type="matrix" values="0 0 0 0 0.0392157 0 0 0 0 0.129412 0 0 0 0 0.372549 0 0 0 0.04 0"/>
<feBlend mode="normal" in2="effect3_dropShadow_399_906" result="effect4_dropShadow_399_906"/>
<feColorMatrix in="SourceAlpha" type="matrix" values="0 0 0 0 0 0 0 0 0 0 0 0 0 0 0 0 0 0 127 0" result="hardAlpha"/>
<feOffset dy="2"/>
<feGaussianBlur stdDeviation="2"/>
<feColorMatrix type="matrix" values="0 0 0 0 0.537255 0 0 0 0 0.631373 0 0 0 0 0.870588 0 0 0 0.4 0"/>
<feBlend mode="normal" in2="effect4_dropShadow_399_906" result="effect5_dropShadow_399_906"/>
<feBlend mode="normal" in="SourceGraphic" in2="effect5_dropShadow_399_906" result="shape"/>
</filter>
<clipPath id="clip0_399_906">
<rect width="200" height="200" fill="white"/>
</clipPath>
</defs>
</svg>
